<?xml version="1.0" encoding="utf-8"?>
<!-- Generator: Adobe Illustrator 27.0.1, SVG Export Plug-In . SVG Version: 6.00 Build 0)  -->
<svg version="1.1" id="Layer_1" xmlns="http://www.w3.org/2000/svg" xmlns:xlink="http://www.w3.org/1999/xlink" x="0px" y="0px"
	 viewBox="0 0 366.8 169.6" style="enable-background:new 0 0 366.8 169.6;" xml:space="preserve">
<style type="text/css">
	.st0{fill:#757677;}
	.st1{fill:#4F7DBF;}
</style>
<g>
	<path class="st0" d="M243.9,73.2L243.9,73.2L203.8,73l-0.1,6.3l38.6,0.3c-7,23.7-28.9,41.1-54.8,41.1c-31.5,0-57.2-25.6-57.2-57.2
		S156,6.3,187.5,6.3c27.5,0,50.5,19.4,56,45.3h6.4C244.2,22.3,218.4,0,187.5,0c-35,0-63.5,28.5-63.5,63.4s28.5,63.4,63.4,63.4
		c31.6,0,58-23.3,62.7-53.7L243.9,73.2L243.9,73.2z"/>
	<path class="st1" d="M268.1,56.9c-2.1,0-2.8,0.8-2.8,0.8c-1,1.4-3.3,2.5-5,2.5h-32.5c-1.8,0-3.9-1.2-4.8-2.6c0,0-1.7-2.6-4.9-2.6
		c-0.4,0-0.4,0-0.4,0c-0.5,0.1-1.5-1.1-2.2-2.7l-7-15.3c-0.7-1.6-0.4-3.9,0.8-5.1c0,0,2.1-2.3,2.1-5.6c0-5.3-4.3-9.5-9.5-9.5
		c-5.3,0-9.5,4.3-9.5,9.5c0,2.6,1,4.1,1,4.1c0.9,1.4,0.9,3.8-0.1,5.1l-8.1,11.3c-1,1.4-2.4,2.4-3.2,2.1c0,0,0,0-0.8,0
		c-3.3,0-5.9,2.7-5.9,5.9c0,0.9,0,0.9,0,0.9c0.4,0.9-0.4,2.7-1.7,3.8l-9.7,8.7c-1.3,1.1-2.9,1.7-3.6,1.3c-0.7-0.4-2.4-2.7-2.1-4.4
		l3.9-23.4c0.3-1.7,1.8-3.7,3.3-4.4c0,0,4.1-2,4.1-5.9c0-4.1-3.3-7.3-7.3-7.3s-7.3,3.3-7.3,7.3c0,3.1,2.2,4.9,2.2,4.9
		c1.3,1.1,2.2,3.4,1.9,5.1l-3.9,23.4c-0.3,1.7-0.6,3.1-0.7,3.1c0,0,0,0-0.1,0c-6.3,0-11.3,5.1-11.3,11.3c0,6.3,5.1,11.3,11.3,11.3
		c6.3,0,11.3-5.1,11.3-11.3c0-2.3-0.6-3.5-0.6-3.5c-0.8-1.6-0.3-3.8,0.9-4.9l9.7-8.7c1.3-1.1,3.3-1.7,4.4-1.1c0,0,0,0,1.2,0
		c0.2,0,0.2,0,0.2,0c0.2,0,0.8,1.3,1.4,2.9l10.9,29.8c0.6,1.6,0.1,4-1.1,5.3c0,0-0.8,0.8-0.8,3.1c0,3.6,2.9,6.4,6.4,6.4
		s6.4-2.9,6.4-6.4c0-3.6-2.9-6.4-6.4-6.4c-0.3,0-0.3,0-0.3,0c-0.3,0-0.9-1.3-1.5-2.9l-10.9-29.8c-0.6-1.6-0.1-4,1-5.3
		c0,0,0.4-0.5,0.4-2.6c0-1.4,0-1.4,0-1.4c-0.8-1.3-0.5-3.5,0.5-4.9l8.1-11.3c1-1.4,3.1-2.1,4.5-1.6c0,0,0,0,1.5,0c0.9,0,0.9,0,0.9,0
		c0.9-0.2,2.2,0.9,2.9,2.5l7,15.3c0.7,1.6,0.4,3.9-0.7,5.3c0,0-0.6,0.8-0.6,2.9c0,3.8,3.1,6.8,6.8,6.8c3.3,0,4.9-2.6,4.9-2.6
		c0.9-1.4,3.1-2.6,4.8-2.6h32.5c1.8,0,3.9,1.1,5,2.5c0,0,0.6,0.8,2.8,0.8c2.7,0,4.9-2.2,4.9-4.9C273,59.2,270.8,56.9,268.1,56.9z"/>
</g>
<g>
	<path class="st0" d="M16.3,161.2c2.1,0,4.1-0.2,6-0.5c1.9-0.3,3.8-0.6,5.9-1.1v-8.9H17.4c-0.2,0-0.4,0-0.5,0c-0.2,0-0.4,0-0.5-0.1
		c-0.2-0.1-0.3-0.1-0.4-0.2c-0.1-0.1-0.1-0.3-0.1-0.5s0-0.4,0.1-0.5c0.1-0.1,0.2-0.2,0.4-0.2c0.2-0.1,0.3-0.1,0.5-0.1
		c0.2,0,0.4,0,0.5,0h10.8c0.5,0,1,0.1,1.2,0.4c0.2,0.2,0.3,0.6,0.3,1.1v8.8c0,0.5-0.2,0.7-0.5,1c-0.4,0.3-0.6,0.4-1,0.5
		c-2.1,0.4-4.1,0.7-6,1c-1.9,0.3-3.9,0.5-5.9,0.5c-2.7,0-4.9-0.2-6.9-0.6c-2-0.5-3.7-1.2-4.9-2.1c-1.3-1-2.3-2.2-3-3.8
		c-0.6-1.6-1-3.4-1-5.6c0-2.2,0.4-4,1-5.6c0.6-1.6,1.6-2.8,3-3.8c1.3-1,2.9-1.6,4.9-2.1c2-0.5,4.3-0.6,6.9-0.6
		c1.8,0,3.6,0.2,5.3,0.5c1.7,0.3,3.5,0.8,5.2,1.6c0.2,0.1,0.4,0.2,0.5,0.4c0.1,0.2,0.2,0.3,0.2,0.5c0,0.2-0.1,0.3-0.2,0.5
		c-0.1,0.1-0.3,0.2-0.5,0.2c-0.1,0-0.2,0-0.4-0.1c-1.6-0.6-3.3-1.2-5-1.6s-3.4-0.5-5.1-0.5c-2.5,0-4.7,0.2-6.4,0.6
		c-1.7,0.5-3.2,1.1-4.4,1.9c-1.1,0.9-1.9,2-2.5,3.4s-0.7,2.9-0.7,4.9c0,1.9,0.3,3.6,0.8,4.9c0.5,1.3,1.4,2.5,2.5,3.4
		s2.6,1.6,4.4,1.9C11.6,160.9,13.8,161.2,16.3,161.2z"/>
	<path class="st0" d="M16.3,162.9c-2.8,0-5.1-0.2-7-0.7c-2-0.5-3.7-1.2-5.1-2.2c-1.4-1.1-2.4-2.4-3.2-3.9c-0.7-1.7-1-3.6-1-5.8
		s0.3-4.1,1-5.8c0.7-1.7,1.8-3,3.2-3.9c1.3-1,2.9-1.7,5.1-2.2c1.9-0.4,4.2-0.7,7-0.7c1.7,0,3.4,0.1,5.4,0.5c1.7,0.3,3.4,0.8,5.3,1.6
		l0,0c0.2,0.1,0.5,0.2,0.7,0.6c0,0,0,0.1,0.1,0.1c0.1,0.1,0.2,0.3,0.2,0.6s-0.1,0.4-0.2,0.6c0,0,0,0.1-0.1,0.1l0,0.1l-0.1,0.1
		c-0.2,0.2-0.5,0.3-0.8,0.3c-0.1,0-0.3,0-0.5-0.1c-1.9-0.7-3.4-1.2-4.9-1.5c-1.7-0.4-3.3-0.5-5-0.5c-2.6,0-4.7,0.2-6.3,0.6
		c-1.7,0.4-3.1,1.1-4.2,1.8c-1.1,0.9-1.8,1.9-2.3,3.2c-0.5,1.2-0.7,2.7-0.7,4.7c0,1.9,0.3,3.5,0.8,4.7c0.6,1.3,1.4,2.4,2.3,3.2
		c1,0.9,2.4,1.5,4.2,1.8c1.8,0.4,4,0.6,6.2,0.6c1.9,0,3.8-0.1,6-0.5c1.7-0.2,3.5-0.6,5.5-1v-8.1H16.8c-0.2,0-0.5,0-0.7-0.2
		c0,0-0.1,0-0.1,0c-0.1,0-0.2-0.1-0.3-0.2c-0.2-0.2-0.2-0.5-0.2-0.8c0-0.2,0-0.6,0.2-0.8c0.1-0.1,0.3-0.3,0.6-0.3
		c0.2-0.1,0.4-0.1,0.6-0.1h11.4c0.8,0,1.3,0.2,1.5,0.5c0.3,0.4,0.4,1.1,0.4,1.4v8.8c0,0.6-0.3,1-0.6,1.3l0,0
		c-0.4,0.3-0.8,0.4-1.2,0.5l0,0l-1.1,0.2c-1.7,0.3-3.4,0.6-4.9,0.8C20.1,162.8,18.1,162.9,16.3,162.9z M16.3,138.8
		c-2.7,0-4.9,0.2-6.8,0.6c-2.1,0.5-3.6,1.1-4.8,2l0,0c-1.3,0.8-2.2,2-2.9,3.6c-0.7,1.6-1,3.4-1,5.4s0.3,3.8,1,5.4
		c0.7,1.4,1.6,2.6,2.9,3.6c1.3,0.9,2.9,1.6,4.8,2c1.8,0.4,4,0.6,6.8,0.6c1.7,0,3.7-0.2,5.8-0.5c1.6-0.2,3.2-0.5,4.9-0.8l1.1-0.2
		c0.3-0.1,0.5-0.2,0.8-0.4c0.2-0.2,0.3-0.4,0.3-0.7v-8.8c0-0.5-0.1-0.7-0.1-0.8l-0.1-0.1c0,0-0.1-0.2-0.8-0.2H16.8
		c-0.2,0-0.2,0-0.3,0l-0.1,0h-0.1c0,0,0,0,0,0c0,0,0,0.1,0,0.2c0,0,0,0.1,0,0.2c0.1,0,0.1,0,0.2,0.1l0.1,0c0,0,0.1,0,0.2,0h11.8v9.7
		l-0.3,0.1c-2.1,0.5-4,0.8-5.9,1.1c-2.2,0.3-4.2,0.5-6.1,0.5c-2.2,0-4.5-0.2-6.4-0.7c-1.9-0.4-3.4-1.1-4.6-2c-1.1-0.9-2-2.1-2.6-3.6
		c-0.6-1.3-0.9-3-0.9-5c0-2.1,0.2-3.7,0.8-5c0.6-1.4,1.4-2.6,2.6-3.6l0,0c1.2-0.8,2.8-1.5,4.5-2c1.7-0.4,3.8-0.7,6.5-0.7
		c1.7,0,3.4,0.2,5.2,0.6c1.6,0.3,3.2,0.8,5.1,1.6l0,0c0.1,0,0.1,0,0.2,0c0,0,0.1,0,0.1,0c0,0,0,0,0-0.1c0,0,0-0.1,0.1-0.1
		c0,0,0-0.1-0.1-0.1c0,0-0.1-0.1-0.1-0.2c0,0-0.1-0.1-0.2-0.2c-1.8-0.8-3.5-1.3-5.1-1.5C19.6,138.9,17.9,138.8,16.3,138.8z"/>
	<path class="st0" d="M42.8,161.1c1.4,0,2.5-0.1,3.5-0.3c1-0.2,1.8-0.4,2.6-0.6c0.7-0.3,1.3-0.5,1.7-0.7c0.5-0.3,0.8-0.5,1.1-0.6
		c0.1,0,0.2,0,0.2,0c0.2,0,0.3,0.1,0.5,0.2s0.2,0.3,0.2,0.5s-0.1,0.3-0.2,0.4c-0.1,0.1-0.4,0.4-0.8,0.5c-0.5,0.3-1,0.5-1.7,0.8
		c-0.7,0.3-1.7,0.5-2.8,0.7c-1.1,0.2-2.5,0.3-4,0.3c-1.6,0-3-0.2-4.1-0.6c-1.1-0.4-2.1-1-2.7-1.7c-0.7-0.7-1.3-1.6-1.6-2.7
		c-0.4-1-0.5-2.2-0.5-3.4c0-1.6,0.3-3,0.8-4.1c0.5-1.1,1.2-1.9,2.1-2.6c0.9-0.6,2-1.1,3.2-1.4c1.2-0.3,2.6-0.4,3.9-0.4
		c2.9,0,5.1,0.5,6.6,1.6c1.5,1.1,2.2,2.7,2.2,4.8c0,0.2,0,0.4,0,0.6s-0.1,0.5-0.1,0.6c-0.1,0.2-0.1,0.4-0.2,0.5
		c-0.1,0.2-0.1,0.2-0.2,0.2h-6.2H35.5c0,1.3,0.2,2.4,0.5,3.3c0.4,0.9,0.8,1.6,1.4,2.2c0.6,0.5,1.4,1,2.3,1.2
		C40.6,160.9,41.7,161.1,42.8,161.1z M43.9,146.7c-1.3,0-2.5,0.1-3.5,0.4c-1,0.3-1.8,0.5-2.6,1.1c-0.7,0.5-1.3,1.1-1.6,1.9
		c-0.4,0.8-0.6,1.7-0.6,2.9h15.9V152c0-0.7-0.1-1.4-0.4-2c-0.3-0.6-0.7-1.2-1.3-1.6c-0.5-0.5-1.4-0.8-2.3-1.1
		C46.5,146.9,45.3,146.7,43.9,146.7z"/>
	<path class="st0" d="M42.9,162.7c-1.8,0-3.2-0.2-4.3-0.7c-1.2-0.4-2.2-1.1-2.9-1.9c-0.8-0.8-1.4-1.8-1.7-2.8
		c-0.3-0.9-0.5-2-0.5-3.5c0-1.7,0.3-3.2,0.9-4.3c0.6-1.2,1.3-2.1,2.2-2.7c0.9-0.7,2.1-1.1,3.4-1.4c1.1-0.3,2.4-0.4,4-0.4
		c3,0,5.3,0.6,6.9,1.7c1.6,1.2,2.4,2.9,2.4,5.1v0.6c0,0.2,0,0.4-0.1,0.5c0,0.1,0,0.1,0,0.2v0.1l0,0.1c0,0,0,0.1-0.1,0.2
		c0,0.1-0.1,0.2-0.1,0.4c-0.1,0.2-0.2,0.4-0.6,0.4H36c0,1,0.2,1.9,0.5,2.7c0.3,0.8,0.8,1.5,1.3,2c0.7,0.6,1.4,0.9,2.1,1.1l0.1,0
		l0.1,0c0.8,0.4,1.7,0.6,2.9,0.6c1.3,0,2.4-0.1,3.4-0.3c0.8-0.2,1.7-0.3,2.5-0.6l0.3-0.1c0.5-0.2,1-0.4,1.3-0.6
		c0.2-0.1,0.4-0.2,0.6-0.3c0.2-0.1,0.4-0.2,0.5-0.3l0.1-0.1h0.3c0.3,0,0.4,0.1,0.6,0.2c0,0,0.1,0,0.1,0.1c0.4,0.2,0.4,0.6,0.4,0.9
		c0,0.4-0.2,0.6-0.3,0.7c-0.1,0.1-0.4,0.4-0.9,0.6c-0.5,0.3-1.1,0.6-1.8,0.8c-0.8,0.3-1.9,0.6-2.9,0.8
		C45.9,162.6,44.5,162.7,42.9,162.7z M44.1,145.8c-1.5,0-2.8,0.1-3.8,0.4c-1.2,0.3-2.2,0.7-3,1.3c-0.8,0.6-1.4,1.3-2,2.4
		c-0.5,1-0.8,2.3-0.8,3.9c0,1.4,0.1,2.4,0.4,3.2l0,0c0.2,0.9,0.7,1.8,1.4,2.5l0,0c0.6,0.7,1.5,1.3,2.6,1.6l0,0
		c1,0.4,2.3,0.6,3.9,0.6c1.6,0,2.9-0.1,4-0.3c1-0.2,2-0.4,2.8-0.7c0.6-0.2,1.2-0.5,1.7-0.8l0.1,0c0.4-0.1,0.6-0.4,0.7-0.5
		c0,0,0.1-0.1,0.1-0.1c0,0,0-0.1,0-0.1c0,0-0.1,0-0.1-0.1c0,0-0.1,0-0.1-0.1h-0.1c-0.1,0.1-0.3,0.2-0.5,0.3
		c-0.2,0.1-0.3,0.2-0.5,0.3c-0.4,0.3-0.9,0.4-1.5,0.6l-0.3,0.1c-0.8,0.3-1.8,0.5-2.6,0.7c-1.1,0.2-2.2,0.3-3.6,0.3
		c-1.3,0-2.3-0.2-3.3-0.7c-0.9-0.2-1.6-0.6-2.4-1.3l0,0c-0.6-0.6-1.1-1.4-1.5-2.3c-0.4-1-0.6-2.1-0.6-3.5v-0.4h0.1v-0.3
		c0-1.1,0.2-2.1,0.7-3.1c0.4-0.9,1-1.6,1.8-2.1c0.8-0.6,1.6-0.9,2.7-1.2c1-0.3,2.1-0.4,3.6-0.4c1.3,0,2.5,0.2,3.8,0.5
		c1.1,0.3,1.9,0.7,2.5,1.2c0.6,0.5,1.1,1.2,1.4,1.8c0.3,0.6,0.4,1.3,0.4,2.2v1.4h0.3c0,0,0-0.1,0-0.1c0-0.1,0-0.2,0.1-0.3
		c0-0.1,0-0.2,0-0.2c0-0.1,0-0.2,0-0.3v-0.6c0-1.9-0.7-3.4-2-4.4C49.1,146.3,46.9,145.8,44.1,145.8z M36.1,152.6h15V152
		c0-0.7-0.1-1.3-0.3-1.8c-0.2-0.5-0.6-1-1.2-1.5c-0.5-0.4-1.2-0.7-2.1-1c-1.2-0.3-2.3-0.4-3.5-0.4c-1.4,0-2.5,0.1-3.4,0.4
		c-1,0.3-1.8,0.5-2.4,1l0,0c-0.7,0.4-1.1,1-1.5,1.7C36.3,151.1,36.1,151.8,36.1,152.6z"/>
	<path class="st0" d="M76.4,160.6c0,0.2,0,0.4,0,0.5c0,0.2-0.1,0.4-0.1,0.5c-0.1,0.2-0.2,0.3-0.3,0.4c-0.1,0.1-0.3,0.2-0.5,0.2
		s-0.4,0-0.5-0.2c-0.1-0.1-0.2-0.2-0.3-0.4c-0.1-0.2-0.1-0.3-0.1-0.5s0-0.4,0-0.5v-7.3c0-1.1-0.1-2-0.3-2.8c-0.2-0.8-0.5-1.5-0.9-2
		c-0.5-0.5-1.1-0.9-1.9-1.2c-0.8-0.3-1.9-0.4-3.3-0.4c-0.8,0-1.7,0.1-2.7,0.2c-0.9,0.1-1.8,0.4-2.7,0.7s-1.6,0.7-2.2,1.3
		c-0.6,0.5-1.1,1.3-1.4,2.1v9.5c0,0.2,0,0.4,0,0.5c0,0.2-0.1,0.4-0.1,0.5c-0.1,0.2-0.1,0.3-0.3,0.4c-0.1,0.1-0.3,0.2-0.4,0.2
		c-0.2,0-0.4,0-0.5-0.2c-0.1-0.1-0.2-0.2-0.3-0.4s-0.1-0.3-0.1-0.5c0-0.2,0-0.4,0-0.5v-13.7c0-0.3,0.1-0.5,0.2-0.6s0.4-0.3,0.7-0.3
		c0.4,0,0.5,0.1,0.6,0.3s0.1,0.5,0.1,0.7v2.7c0.4-0.9,0.9-1.6,1.6-2.2c0.7-0.5,1.5-0.9,2.3-1.2c0.8-0.3,1.6-0.5,2.6-0.5
		c0.8-0.1,1.6-0.1,2.4-0.1c1.6,0,2.8,0.1,3.8,0.4c1,0.3,1.8,0.7,2.5,1.3c0.6,0.6,1.1,1.4,1.4,2.4c0.3,1,0.4,2.2,0.4,3.7L76.4,160.6
		L76.4,160.6z"/>
	<path class="st0" d="M58.7,162.7c-0.2,0-0.6,0-0.8-0.4c-0.1-0.1-0.2-0.2-0.3-0.4c-0.1-0.3-0.1-0.5-0.1-0.7v-14.3
		c0-0.4,0.1-0.6,0.2-0.8c0.1-0.2,0.4-0.5,1.1-0.5c0.2,0,0.8,0,1,0.5c0.1,0.3,0.1,0.6,0.1,0.9v1c0.3-0.3,0.6-0.6,0.9-0.9
		c0.7-0.6,1.5-1,2.4-1.3c0.9-0.3,1.7-0.5,2.7-0.6c0.8-0.1,1.7-0.1,2.4-0.1c1.8,0,3,0.1,4,0.4c1,0.3,1.9,0.7,2.6,1.4l0,0
		c0.7,0.7,1.2,1.6,1.5,2.6c0.3,1,0.4,2.1,0.4,3.8v7.7h-0.1v0.1c0,0.2,0,0.3-0.1,0.4c0,0,0,0,0,0.1v0.1l0,0.1
		c-0.1,0.2-0.3,0.4-0.4,0.5c-0.2,0.2-0.5,0.3-0.8,0.3c-0.2,0-0.6,0-0.8-0.4c-0.1-0.1-0.2-0.2-0.3-0.4c-0.1-0.3-0.1-0.5-0.1-0.7v-7.9
		c0-1-0.1-1.9-0.3-2.7c-0.2-0.8-0.4-1.4-0.8-1.8c-0.4-0.5-0.9-0.8-1.7-1.1c-0.7-0.2-1.7-0.3-3.2-0.3c-0.8,0-1.7,0.1-2.6,0.2
		c-0.8,0.1-1.7,0.3-2.5,0.7c-0.9,0.4-1.5,0.7-2.1,1.2c-0.5,0.5-1,1.1-1.2,1.8v10c0,0.2,0,0.3-0.1,0.4c0,0,0,0,0,0.1v0.1l0,0.1
		c0,0,0,0.1,0,0.1c-0.1,0.1-0.1,0.3-0.4,0.4C59.2,162.5,58.9,162.7,58.7,162.7z M58.6,161.8C58.6,161.8,58.6,161.8,58.6,161.8
		c0.1,0,0.1,0,0.1-0.1l0,0l0.1,0c0,0,0,0,0,0c0,0,0,0,0-0.1c0-0.1,0-0.1,0-0.2c0-0.1,0-0.1,0-0.2v-10.1l0-0.1c0-0.1,0-0.1,0.1-0.2
		V147c0-0.2,0-0.4,0-0.5c0,0-0.1,0-0.2,0c-0.2,0-0.3,0-0.3,0.1c-0.1,0.1-0.1,0.3-0.1,0.4v14.3c0,0.2,0,0.2,0,0.3
		C58.4,161.6,58.5,161.6,58.6,161.8L58.6,161.8z M75.4,161.7C75.5,161.7,75.5,161.7,75.4,161.7c0.1,0,0.2,0,0.2-0.1
		c0.1-0.1,0.1-0.1,0.2-0.2c0,0,0-0.1,0-0.1c0-0.1,0-0.1,0-0.2v-1H76v-6.8c0-1.6-0.1-2.7-0.4-3.5c-0.2-0.9-0.6-1.5-1.2-2.2
		c-0.6-0.5-1.4-0.9-2.3-1.2c-0.9-0.2-2.1-0.4-3.7-0.4c-0.7,0-1.5,0-2.3,0.1c-0.9,0.1-1.6,0.3-2.5,0.5c-0.8,0.3-1.5,0.6-2.2,1.1
		c-0.3,0.2-0.5,0.4-0.7,0.7c0.6-0.5,1.3-0.8,2.1-1.2c0.9-0.4,1.9-0.7,2.8-0.8c0.9-0.1,1.9-0.2,2.7-0.2c1.6,0,2.6,0.1,3.4,0.4
		c1,0.3,1.6,0.7,2.1,1.3c0.5,0.6,0.8,1.3,1,2.2c0.2,0.9,0.3,1.8,0.3,2.9v7.9c0,0.2,0,0.2,0,0.3C75.3,161.5,75.3,161.5,75.4,161.7
		L75.4,161.7z"/>
	<path class="st0" d="M91.7,162.3c-1.9,0-3.6-0.2-4.9-0.5c-1.4-0.4-2.4-0.9-3.2-1.6c-0.8-0.7-1.4-1.6-1.7-2.7
		c-0.4-1-0.5-2.2-0.5-3.5c0-1.5,0.2-2.7,0.6-3.8s1.1-1.9,1.9-2.7c0.8-0.7,1.9-1.2,3.3-1.6c1.3-0.4,2.8-0.5,4.7-0.5
		c1.8,0,3.4,0.2,4.7,0.5c1.3,0.4,2.4,0.8,3.3,1.6c0.8,0.7,1.5,1.6,1.9,2.7s0.6,2.4,0.6,3.8c0,1.3-0.2,2.5-0.5,3.5s-0.9,1.9-1.7,2.7
		c-0.8,0.7-1.9,1.3-3.2,1.6C95.5,162.1,93.7,162.3,91.7,162.3z M91.7,161.1c1.3,0,2.4-0.1,3.3-0.3c0.9-0.2,1.7-0.5,2.4-0.8
		c0.6-0.4,1.2-0.7,1.6-1.2s0.7-0.9,0.9-1.5c0.3-0.5,0.4-1.1,0.5-1.6s0.1-1.1,0.1-1.7c0-1.3-0.2-2.4-0.5-3.3s-0.8-1.6-1.6-2.2
		s-1.6-1-2.7-1.3c-1.1-0.3-2.5-0.4-3.9-0.4c-1.6,0-2.8,0.1-3.9,0.4c-1.1,0.3-2,0.6-2.7,1.3c-0.7,0.5-1.3,1.3-1.6,2.2
		c-0.3,0.9-0.5,2-0.5,3.3c0,0.5,0,1.2,0.1,1.7c0.1,0.5,0.3,1.1,0.5,1.6c0.3,0.5,0.5,1,0.9,1.5s0.9,0.8,1.6,1.2
		c0.6,0.4,1.5,0.6,2.4,0.8C89.3,161,90.4,161.1,91.7,161.1z"/>
	<path class="st0" d="M91.7,162.8c-2,0-3.7-0.2-5.1-0.6c-1.4-0.4-2.5-0.9-3.4-1.7c-0.9-0.8-1.5-1.7-1.9-2.8c-0.4-1-0.6-2.3-0.6-3.6
		c0-1.6,0.2-2.9,0.7-4c0.5-1.1,1.1-2,2-2.8c0.8-0.7,1.9-1.2,3.5-1.7c1.5-0.4,3.2-0.5,4.8-0.5c1.7,0,3.3,0.2,4.8,0.5l0,0
		c1.5,0.4,2.6,0.9,3.5,1.6l0,0c0.9,0.8,1.6,1.7,2,2.8c0.5,1.1,0.7,2.4,0.7,4c0,1.4-0.2,2.6-0.6,3.6c-0.4,1.2-1,2.1-1.9,2.8
		c-0.9,0.8-2,1.3-3.4,1.7C95.6,162.6,93.8,162.8,91.7,162.8z M91.7,145.9c-2.1,0-3.5,0.1-4.5,0.4c-1.5,0.4-2.4,0.8-3.1,1.5
		c-0.8,0.7-1.4,1.5-1.8,2.5c-0.4,1-0.6,2.2-0.6,3.7c0,1.2,0.2,2.4,0.5,3.3c0.3,1,0.8,1.8,1.6,2.5c0.8,0.7,1.8,1.2,3,1.6
		c1.3,0.4,3,0.5,4.8,0.5c2,0,3.8-0.2,5-0.5c1.3-0.4,2.3-0.9,3-1.6c0.7-0.6,1.2-1.4,1.6-2.5c0.3-0.9,0.5-2.1,0.5-3.3
		c0-1.5-0.2-2.7-0.6-3.7c-0.4-1-1-1.7-1.8-2.5c-0.8-0.6-1.7-1.1-3.1-1.5C94.9,146.1,93.4,145.9,91.7,145.9z M91.7,161.6
		c-1.3,0-2.4-0.1-3.6-0.3c-1-0.2-1.9-0.5-2.5-0.9c-0.6-0.4-1.2-0.8-1.7-1.3c-0.4-0.4-0.7-0.9-1-1.5l0-0.1c-0.2-0.6-0.4-1.1-0.5-1.7
		c-0.1-0.6-0.1-1.2-0.1-1.8c0-1.3,0.3-2.5,0.6-3.4c0.3-1,0.9-1.8,1.7-2.4c0.7-0.6,1.6-1,2.9-1.4c1.1-0.3,2.3-0.4,4-0.4
		c1.7,0,3,0.1,4,0.4c1.1,0.3,2.1,0.7,2.9,1.4c0.7,0.6,1.3,1.3,1.7,2.4c0.4,1,0.6,2.1,0.6,3.5c0,0.7,0,1.2-0.1,1.8
		c-0.1,0.6-0.2,1.1-0.5,1.7c-0.2,0.6-0.6,1.1-1,1.6c-0.4,0.5-1.1,0.9-1.7,1.3c-0.7,0.4-1.5,0.7-2.5,0.9
		C94.1,161.5,93,161.6,91.7,161.6z M83.7,157.2c0.3,0.6,0.5,1,0.9,1.4c0.3,0.4,0.9,0.8,1.4,1.1c0.6,0.3,1.3,0.6,2.2,0.8
		c1.1,0.2,2.2,0.3,3.4,0.3c1.2,0,2.3-0.1,3.2-0.3c0.9-0.2,1.7-0.4,2.2-0.8c0.5-0.3,1.1-0.7,1.4-1.1c0.4-0.4,0.7-0.9,0.8-1.3l0-0.1
		c0.2-0.5,0.3-1,0.4-1.5c0.1-0.5,0.1-1,0.1-1.7c0-1.2-0.2-2.3-0.5-3.1c-0.4-0.9-0.8-1.6-1.4-2c-0.7-0.6-1.6-1-2.6-1.2
		c-0.9-0.2-2.2-0.4-3.8-0.4c-1.7,0-2.9,0.1-3.8,0.4c-1.2,0.3-2,0.7-2.6,1.2l0,0c-0.7,0.5-1.2,1.2-1.4,2c-0.3,0.9-0.5,1.9-0.5,3.2
		c0,0.5,0,1.2,0.1,1.7C83.4,156.1,83.6,156.7,83.7,157.2z"/>
	<path class="st0" d="M114,162.3c-0.4,0-0.5-0.1-0.7-0.3c-0.2-0.2-0.3-0.4-0.4-0.5l-8.2-14.1c-0.1-0.2-0.2-0.3-0.2-0.4s0-0.3,0-0.4
		c0-0.3,0.1-0.5,0.2-0.5c0.2-0.1,0.3-0.2,0.5-0.2c0.2,0,0.3,0.1,0.5,0.2c0.2,0.1,0.3,0.3,0.5,0.5l7.9,14l7.9-14
		c0.1-0.2,0.3-0.4,0.5-0.5c0.2-0.1,0.4-0.2,0.5-0.2c0.2,0,0.4,0.1,0.5,0.2s0.2,0.3,0.2,0.5c0,0.2-0.1,0.5-0.2,0.7l-8.2,14.1
		c-0.1,0.2-0.3,0.4-0.4,0.5C114.5,162.2,114.3,162.3,114,162.3z"/>
	<path class="st0" d="M114,162.8c-0.5,0-0.8-0.1-1-0.4c-0.2-0.2-0.3-0.5-0.4-0.7l-8.2-14.1c0-0.1-0.1-0.1-0.1-0.1
		c-0.1-0.1-0.2-0.2-0.2-0.4v-0.4c0-0.4,0.1-0.7,0.3-0.9l0.1-0.1l0.1,0c0,0,0.1,0,0.1,0c0.1-0.1,0.3-0.2,0.7-0.2
		c0.3,0,0.4,0.1,0.6,0.2c0,0,0.1,0,0.1,0.1c0.2,0.1,0.3,0.3,0.4,0.4c0,0.1,0.1,0.1,0.1,0.2l0,0l0,0.1l7.5,13.3l7.5-13.3
		c0.1-0.3,0.4-0.5,0.6-0.6c0.3-0.1,0.5-0.2,0.7-0.2c0.3,0,0.5,0.1,0.7,0.2c0.4,0.2,0.4,0.6,0.4,1c0,0.3-0.1,0.6-0.2,0.9l0,0.1
		l-8.2,14.1c-0.1,0.1-0.1,0.2-0.2,0.3c-0.1,0.1-0.1,0.2-0.1,0.2l0,0.1l-0.1,0.1C114.8,162.6,114.4,162.8,114,162.8z M105,147.2
		l8.2,14.1c0.1,0.2,0.2,0.3,0.3,0.4c0.1,0.1,0.2,0.1,0.4,0.1c0.1,0,0.3,0,0.4-0.1c0.1-0.1,0.1-0.2,0.2-0.3c0.1-0.1,0.1-0.2,0.1-0.2
		l0,0l8.2-14.1c0.1-0.2,0.1-0.4,0.1-0.5c0-0.1,0-0.1,0-0.2c-0.1,0-0.2-0.1-0.3-0.1c-0.1,0-0.2,0.1-0.3,0.1c-0.1,0-0.2,0.2-0.3,0.3
		l-8.3,14.7l-8.2-14.7c-0.1-0.1-0.1-0.1-0.2-0.2c-0.1-0.1-0.1-0.1-0.1-0.2c-0.1,0-0.1-0.1-0.2-0.1c0,0-0.1,0-0.1-0.1
		c-0.1,0-0.1,0-0.2,0.1c0,0,0,0,0,0c0,0,0,0.1,0,0.2v0.3c0,0,0,0,0,0C105,147,105,147.1,105,147.2z"/>
	<path class="st0" d="M137.3,146.7c-1.4,0-2.5,0-3.5,0.1c-0.9,0.1-1.7,0.2-2.5,0.3c-0.6,0.1-1.3,0.3-1.7,0.4s-0.9,0.3-1.2,0.4
		c-0.2,0-0.4-0.1-0.5-0.3s-0.2-0.4-0.2-0.5c0-0.2,0.1-0.3,0.3-0.4c0.1-0.1,0.4-0.2,0.8-0.3c0.5-0.1,1-0.3,1.7-0.4
		c0.7-0.1,1.6-0.3,2.8-0.4c1.1-0.1,2.5-0.2,3.9-0.2c0.7,0,1.5,0,2.1,0.1c0.7,0.1,1.4,0.3,2,0.5c0.6,0.3,1.2,0.5,1.7,1
		c0.5,0.5,1,1,1.4,1.6c0.4,0.6,0.7,1.5,0.9,2.5c0.2,1,0.4,2.1,0.4,3.4v6c0,0.2,0,0.4,0,0.5c0,0.2-0.1,0.4-0.1,0.5
		c-0.1,0.2-0.2,0.3-0.3,0.4c-0.1,0.1-0.3,0.2-0.5,0.2c-0.4,0-0.5-0.2-0.6-0.5c-0.1-0.3-0.2-0.6-0.2-1.1v-1.5
		c-0.3,0.4-0.6,0.7-1.1,1.1s-1,0.7-1.7,1c-0.7,0.3-1.6,0.5-2.5,0.8c-0.9,0.3-2.1,0.3-3.4,0.3c-1.2,0-2.4-0.1-3.5-0.3
		c-1.1-0.2-2-0.5-2.8-0.8c-0.8-0.4-1.5-0.9-1.9-1.6c-0.5-0.6-0.6-1.4-0.6-2.3c0-1,0.2-1.8,0.6-2.6c0.5-0.6,1-1.2,1.7-1.6
		c0.7-0.5,1.6-0.7,2.7-0.8c1-0.2,2.1-0.3,3.3-0.3c0.9,0,1.7,0,2.7,0c0.9,0,1.7,0.1,2.6,0.2c0.8,0.1,1.6,0.3,2.2,0.5
		c0.6,0.2,1.2,0.5,1.6,0.6c0-1.5-0.2-2.6-0.5-3.5c-0.4-0.9-0.9-1.6-1.6-2c-0.6-0.5-1.4-0.8-2.2-1
		C138.9,146.6,138.2,146.7,137.3,146.7z M128.3,157.4c0,0.6,0.2,1.3,0.5,1.7c0.4,0.5,0.8,0.8,1.5,1.1c0.6,0.3,1.4,0.5,2.2,0.6
		c0.8,0.1,1.7,0.2,2.8,0.2c1.3,0,2.4-0.1,3.3-0.3s1.8-0.4,2.5-0.6c0.7-0.3,1.3-0.5,1.8-0.9c0.5-0.3,0.9-0.6,1.2-0.9v-4.2
		c-1.4-0.2-2.8-0.4-4.4-0.5c-1.5-0.2-3-0.3-4.6-0.3c-1.1,0-2,0.1-2.9,0.2c-0.8,0.1-1.6,0.4-2.2,0.6c-0.5,0.3-1,0.7-1.4,1.3
		C128.5,155.9,128.3,156.6,128.3,157.4z"/>
	<path class="st0" d="M135.5,162.8c-1.2,0-2.5-0.1-3.6-0.3c-1.1-0.2-2.1-0.5-2.9-0.9c-0.9-0.4-1.6-1-2.1-1.7
		c-0.5-0.7-0.7-1.5-0.7-2.5c0-1.1,0.2-2,0.7-2.8l0,0c0.5-0.7,1.1-1.3,1.9-1.8c0.8-0.5,1.7-0.8,2.8-0.9c1-0.2,2.2-0.3,3.4-0.3h2.7
		c0.9,0,1.8,0.1,2.6,0.2c0.9,0.1,1.7,0.3,2.3,0.5c0.4,0.1,0.7,0.3,1.1,0.4c0-1.1-0.2-1.9-0.5-2.6c-0.3-0.8-0.8-1.4-1.4-1.8
		c-0.7-0.5-1.3-0.8-2-0.9c-0.6-0.1-1.1-0.1-1.7-0.1c-0.2,0-0.4,0-0.7,0c-1.4,0-2.5,0-3.4,0.1c-0.9,0.1-1.7,0.2-2.5,0.3
		c-0.4,0.1-0.8,0.2-1.2,0.2c-0.2,0-0.4,0.1-0.5,0.1c-0.3,0.1-0.7,0.2-0.9,0.3c-0.1,0-0.2,0.1-0.2,0.1l-0.1,0h-0.1
		c-0.4,0-0.7-0.2-0.9-0.5c-0.1-0.2-0.2-0.5-0.2-0.7c0-0.4,0.3-0.7,0.5-0.7c0.1-0.1,0.4-0.2,1-0.3c0.1,0,0.3-0.1,0.5-0.1
		c0.4-0.1,0.8-0.2,1.3-0.3c0.2,0,0.5-0.1,0.8-0.1c0.6-0.1,1.3-0.2,2.1-0.3c0.9-0.1,2.4-0.2,4-0.2c0.7,0,1.5,0,2.2,0.1
		c0.8,0.1,1.4,0.3,2.1,0.5l0.1,0c0.7,0.3,1.3,0.6,1.9,1.1c0.6,0.5,1.1,1.1,1.5,1.8c0.5,0.8,0.8,1.7,1,2.6c0.2,1,0.4,2.2,0.4,3.5v6.6
		c0,0.2,0,0.3-0.1,0.4c0,0,0,0,0,0.1v0.1l0,0.1c-0.1,0.2-0.3,0.4-0.4,0.5c-0.2,0.2-0.5,0.3-0.8,0.3c-0.5,0-0.9-0.3-1.1-0.8
		c-0.1-0.4-0.2-0.8-0.2-1.2v-0.3c-0.1,0.1-0.2,0.2-0.4,0.3c-0.4,0.3-1,0.8-1.9,1.1c-0.7,0.3-1.6,0.6-2.5,0.8
		C138.1,162.8,136.8,162.8,135.5,162.8z M127.6,155c-0.4,0.6-0.6,1.3-0.6,2.3c0,0.9,0.2,1.5,0.6,2c0.4,0.6,1,1.1,1.7,1.4
		c0.8,0.4,1.7,0.6,2.7,0.8c1.1,0.2,2.2,0.3,3.4,0.3c1.2,0,2.4,0,3.3-0.3c0.9-0.3,1.7-0.5,2.4-0.8c0.8-0.3,1.3-0.7,1.6-0.9
		c0.1-0.1,0.2-0.2,0.3-0.3c-0.6,0.4-1.1,0.7-1.9,0.9c-0.7,0.3-1.6,0.5-2.5,0.7c-0.9,0.2-2.1,0.3-3.4,0.3c-1.1,0-2-0.1-2.9-0.2
		c-0.9-0.1-1.7-0.4-2.3-0.7c-0.7-0.3-1.2-0.7-1.6-1.2c-0.4-0.5-0.6-1.3-0.6-2c0-0.7,0.1-1.4,0.4-2.2l0-0.1l0,0
		c0.4-0.7,1-1.1,1.5-1.4l0,0c0.6-0.3,1.4-0.6,2.3-0.7c0.9-0.1,1.9-0.2,3-0.2c1.6,0,3.2,0.1,4.6,0.3c1.2,0.1,2.4,0.3,3.5,0.4
		c-0.3-0.1-0.7-0.3-1-0.4c-0.6-0.2-1.3-0.4-2.1-0.4c-0.8-0.1-1.6-0.2-2.5-0.2H135c-1.2,0-2.2,0.1-3.2,0.3l0,0
		c-1,0.1-1.8,0.3-2.5,0.8C128.6,153.9,128.1,154.4,127.6,155z M144.7,157.8v2.8c0,0.4,0.1,0.8,0.2,1c0,0.1,0.1,0.2,0.2,0.2
		c0.1,0,0.1,0,0.1-0.1c0.1-0.1,0.1-0.1,0.2-0.2c0,0,0-0.1,0-0.1c0-0.1,0-0.1,0-0.2v-6.6c0-1.2-0.2-2.3-0.4-3.3
		c-0.1-0.8-0.4-1.6-0.9-2.3c-0.3-0.6-0.8-1.1-1.3-1.5c-0.5-0.4-1-0.7-1.6-0.9c-0.6-0.2-1.2-0.4-1.9-0.4c-0.6-0.1-1.3-0.1-2.1-0.1
		c-1.5,0-3,0.1-3.9,0.2c-0.8,0.1-1.5,0.2-2,0.3c-0.3,0-0.5,0.1-0.8,0.1c-0.5,0.1-0.9,0.2-1.2,0.2c-0.2,0-0.4,0.1-0.5,0.1
		c-0.4,0.1-0.6,0.2-0.6,0.2l0,0l-0.1,0c0,0,0,0,0,0c0,0.1,0.1,0.2,0.1,0.3c0,0,0,0,0,0c0,0,0.1,0,0.1,0c0.3-0.1,0.7-0.2,1-0.3
		c0.2,0,0.3-0.1,0.5-0.1c0.4-0.1,0.8-0.2,1.2-0.3c0.7-0.1,1.6-0.2,2.5-0.3c1-0.1,2.1-0.1,3.5-0.1c0.2,0,0.5,0,0.7,0
		c0.6,0,1.2,0,1.9,0.1c0.8,0.2,1.6,0.5,2.4,1.1c0.8,0.5,1.3,1.3,1.7,2.2c0.4,1,0.6,2.2,0.6,3.6v0.3l0.1,0v4.2L144.7,157.8z
		 M129.1,155.5c-0.2,0.5-0.3,1.1-0.3,1.8c0,0.6,0.2,1.1,0.5,1.5c0.3,0.4,0.8,0.7,1.3,1c0.6,0.3,1.3,0.5,2.1,0.6
		c0.8,0.1,1.7,0.2,2.8,0.2c1.2,0,2.3-0.1,3.2-0.3c0.9-0.2,1.8-0.4,2.4-0.6c0.7-0.3,1.2-0.5,1.8-0.9c0.4-0.2,0.8-0.5,1-0.7v-3.6
		c-1.3-0.2-2.6-0.3-4-0.5c-1.4-0.2-3-0.3-4.5-0.3c-1.1,0-2,0.1-2.9,0.2c-0.8,0.1-1.5,0.4-2.1,0.6C129.8,154.7,129.4,155,129.1,155.5
		z M128.3,147L128.3,147L128.3,147z"/>
	<path class="st0" d="M160.3,146.3c0.2,0,0.4,0.1,0.5,0.2c0.1,0.1,0.2,0.2,0.2,0.4c0,0.1-0.1,0.3-0.2,0.4c-0.1,0.1-0.3,0.2-0.5,0.2
		h-7.1v9c0,1,0.1,1.8,0.3,2.5s0.5,1.1,0.8,1.5c0.4,0.4,0.8,0.5,1.3,0.7c0.5,0.1,1,0.2,1.6,0.2c0.6,0,1.4-0.1,2-0.4
		c0.6-0.3,1.4-0.5,2.2-1c0.2-0.1,0.4-0.1,0.5-0.1c0.2,0,0.4,0.1,0.5,0.2c0.1,0.1,0.2,0.3,0.2,0.4c0,0.3-0.2,0.5-0.5,0.6
		c-0.5,0.4-1.1,0.5-1.6,0.8c-0.5,0.2-0.9,0.4-1.3,0.5c-0.4,0.1-0.7,0.2-1.1,0.3c-0.4,0-0.7,0.1-1.2,0.1c-0.7,0-1.5-0.1-2.1-0.3
		c-0.6-0.2-1.2-0.5-1.7-1c-0.5-0.5-0.8-1.1-1.1-1.9c-0.3-0.8-0.5-1.7-0.5-2.8v-9h-1.8c-0.2,0-0.4-0.1-0.5-0.2
		c-0.1-0.1-0.2-0.2-0.2-0.4c0-0.1,0.1-0.3,0.2-0.4c0.1-0.1,0.3-0.2,0.5-0.2h1.8v-5.2c0-0.5,0.1-0.7,0.3-0.8s0.4-0.2,0.5-0.2
		c0.3,0,0.5,0.1,0.6,0.2c0.2,0.1,0.3,0.4,0.3,0.8v5.2h7.1V146.3z"/>
	<path class="st0" d="M156.9,163c-0.8,0-1.6-0.1-2.2-0.3c-0.8-0.2-1.4-0.7-1.9-1.1l0,0c-0.5-0.5-0.9-1.2-1.2-2.1
		c-0.3-1-0.5-1.9-0.5-3V148h-1.4c-0.3,0-0.6-0.1-0.8-0.3c-0.1-0.1-0.3-0.3-0.3-0.7c0-0.2,0.2-0.5,0.3-0.7c0.2-0.2,0.5-0.3,0.8-0.3
		h1.4v-4.8c0-0.2,0-1,0.5-1.2c0.2-0.1,0.5-0.2,0.7-0.2c0.4,0,0.6,0.1,0.8,0.2c0.5,0.3,0.5,1,0.5,1.2v4.8h6.2v-0.2h0.4
		c0.3,0,0.6,0.1,0.8,0.3c0.1,0.1,0.3,0.3,0.3,0.7c0,0.2-0.2,0.5-0.3,0.7c-0.2,0.2-0.5,0.3-0.8,0.3h-6.6v8.5c0,1,0.1,1.8,0.3,2.3
		c0.2,0.5,0.4,0.9,0.7,1.3c0.3,0.3,0.7,0.5,1.1,0.6c0.4,0.1,0.9,0.2,1.4,0.2c0.5,0,1.2-0.1,1.8-0.3c0.1-0.1,0.3-0.1,0.4-0.2
		c0.5-0.2,1.1-0.5,1.7-0.8c0.3-0.1,0.6-0.1,0.7-0.1c0.3,0,0.6,0.1,0.8,0.3c0.2,0.2,0.3,0.4,0.3,0.7c0,0.5-0.3,0.9-0.7,1
		c-0.3,0.2-0.7,0.4-0.9,0.5c-0.2,0.1-0.4,0.2-0.6,0.3l-0.1,0c-0.5,0.2-0.9,0.4-1.3,0.5l-1.2,0.3h-0.1c-0.1,0-0.3,0-0.5,0
		C157.4,163,157.2,163,156.9,163z M153.4,161c0.6,0.5,1.1,0.8,1.6,0.9c0.6,0.2,1.3,0.3,2,0.3c0.2,0,0.4,0,0.6,0c0.2,0,0.3,0,0.5,0
		l1-0.3c0.3-0.1,0.8-0.3,1.2-0.4c0.2-0.1,0.4-0.2,0.6-0.3c0.3-0.1,0.6-0.3,0.9-0.5l0,0l0.1,0c0.1,0,0.1-0.1,0.1-0.2
		c0,0,0-0.1-0.1-0.1c0,0-0.1-0.1-0.1-0.1c-0.1,0-0.2,0-0.3,0c-0.7,0.4-1.3,0.6-1.8,0.8c-0.1,0.1-0.3,0.1-0.4,0.2
		c-0.8,0.3-1.6,0.4-2.2,0.4c-0.6,0-1.2-0.1-1.6-0.2l-0.1,0c-0.5-0.2-1-0.4-1.4-0.8c-0.4-0.4-0.7-1-0.9-1.7c-0.2-0.7-0.3-1.6-0.3-2.6
		v-9.4h7.5c0,0,0.1,0,0.1,0h-7.6v-5.7c0-0.3,0-0.4-0.1-0.4c-0.1-0.1-0.3-0.1-0.4-0.1c-0.1,0-0.2,0.1-0.3,0.1c0,0-0.1,0.2-0.1,0.4
		v5.7h-2.3c-0.1,0-0.1,0-0.1,0.1c0,0,0,0,0,0.1c0,0,0,0,0,0c0,0,0.1,0.1,0.1,0.1h2.3v9.4c0,1,0.1,1.8,0.4,2.7
		C152.7,160,153,160.6,153.4,161z M149.5,147.1L149.5,147.1L149.5,147.1z"/>
	<path class="st0" d="M165.3,141.2c0-0.4,0.1-0.5,0.3-0.8c0.2-0.2,0.5-0.4,0.8-0.4c0.4,0,0.6,0.1,0.8,0.4c0.2,0.2,0.4,0.5,0.4,0.8
		s-0.1,0.5-0.4,0.8c-0.2,0.2-0.5,0.3-0.8,0.3c-0.4,0-0.5-0.1-0.8-0.3C165.4,141.8,165.3,141.5,165.3,141.2z M167.3,160.8
		c0,0.2,0,0.4,0,0.5c0,0.2-0.1,0.3-0.1,0.5c-0.1,0.1-0.1,0.2-0.3,0.3c-0.1,0.1-0.3,0.1-0.5,0.1c-0.4,0-0.6-0.1-0.7-0.4
		c-0.1-0.3-0.1-0.5-0.1-1v-13.6c0-0.4,0.1-0.6,0.2-0.9c0.1-0.3,0.4-0.4,0.7-0.4c0.4,0,0.5,0.1,0.6,0.4c0.1,0.3,0.1,0.5,0.1,0.8
		L167.3,160.8L167.3,160.8z"/>
	<path class="st0" d="M166.5,162.7c-0.8,0-1.1-0.4-1.2-0.7c-0.1-0.3-0.1-0.7-0.1-1.1v-13.6c0-0.4,0.1-0.8,0.2-1.1
		c0.1-0.3,0.4-0.7,1.2-0.7c0.2,0,0.8,0,1.1,0.7c0.1,0.3,0.1,0.7,0.1,1v14.2c0,0.2,0,0.3-0.1,0.4c0,0.1,0,0.1,0,0.1v0.2l-0.1,0.1
		c0,0,0,0,0,0c-0.1,0.1-0.1,0.2-0.3,0.3C167,162.7,166.7,162.7,166.5,162.7z M166.6,146.5c-0.2,0-0.3,0.1-0.3,0.1
		c-0.1,0.3-0.2,0.5-0.2,0.8v13.6c0,0.4,0,0.7,0.1,0.9c0,0,0.1,0.1,0.3,0.1c0.1,0,0.1,0,0.2,0l0,0l0.1,0c0,0,0,0,0,0c0,0,0,0,0,0
		c0,0,0,0,0,0c0-0.1,0-0.1,0.1-0.2c0-0.1,0-0.1,0-0.1v-14.2c0-0.3,0-0.5-0.1-0.7c0,0,0,0,0,0C166.8,146.5,166.7,146.5,166.6,146.5z
		 M166.7,161.8L166.7,161.8L166.7,161.8z M166.4,142.7c-0.5,0-0.8-0.2-1.1-0.4l-0.1-0.1c-0.3-0.3-0.4-0.7-0.4-1.1
		c0-0.5,0.2-0.8,0.4-1.1l0.1-0.1c0.3-0.3,0.7-0.5,1.1-0.5c0.2,0,0.8,0,1.2,0.5c0.3,0.3,0.5,0.7,0.5,1.1c0,0.5-0.2,0.8-0.5,1.1
		C167.2,142.6,166.9,142.7,166.4,142.7z M165.8,141.6c0.2,0.1,0.3,0.2,0.5,0.2c0.2,0,0.4,0,0.5-0.1c0.2-0.2,0.2-0.3,0.2-0.5
		c0-0.2-0.1-0.4-0.2-0.5l-0.1-0.1c-0.1-0.1-0.1-0.2-0.5-0.2c-0.2,0-0.3,0.1-0.5,0.2c-0.1,0.2-0.2,0.3-0.2,0.5
		C165.7,141.4,165.8,141.5,165.8,141.6z"/>
	<path class="st0" d="M183.2,162.3c-1.9,0-3.6-0.2-4.9-0.5c-1.4-0.4-2.4-0.9-3.2-1.6c-0.8-0.7-1.4-1.6-1.7-2.7
		c-0.4-1-0.5-2.2-0.5-3.5c0-1.5,0.2-2.7,0.6-3.8s1.1-1.9,1.9-2.7c0.8-0.7,1.9-1.2,3.3-1.6c1.3-0.4,2.8-0.5,4.7-0.5
		c1.8,0,3.4,0.2,4.7,0.5c1.3,0.4,2.4,0.8,3.3,1.6c0.8,0.7,1.5,1.6,1.9,2.7c0.5,1.1,0.6,2.4,0.6,3.8c0,1.3-0.2,2.5-0.5,3.5
		c-0.4,1-0.9,1.9-1.7,2.7c-0.8,0.7-1.9,1.3-3.2,1.6C187.1,162.1,185.1,162.3,183.2,162.3z M183.2,161.1c1.3,0,2.4-0.1,3.3-0.3
		c0.9-0.2,1.7-0.5,2.4-0.8c0.6-0.4,1.2-0.7,1.6-1.2s0.7-0.9,0.9-1.5c0.3-0.5,0.4-1.1,0.5-1.6c0.1-0.5,0.1-1.1,0.1-1.7
		c0-1.3-0.2-2.4-0.5-3.3s-0.8-1.6-1.6-2.2s-1.6-1-2.7-1.3c-1.1-0.3-2.5-0.4-3.9-0.4c-1.6,0-2.8,0.1-3.9,0.4c-1.1,0.3-2,0.6-2.7,1.3
		c-0.7,0.5-1.3,1.3-1.6,2.2c-0.3,0.9-0.5,2-0.5,3.3c0,0.5,0,1.2,0.1,1.7c0.1,0.5,0.3,1.1,0.5,1.6c0.3,0.5,0.5,1,0.9,1.5
		c0.4,0.5,0.9,0.8,1.6,1.2c0.6,0.4,1.5,0.6,2.4,0.8C180.7,161,181.9,161.1,183.2,161.1z"/>
	<path class="st0" d="M183.2,162.8c-2,0-3.7-0.2-5.1-0.6c-1.4-0.4-2.5-0.9-3.4-1.7c-0.9-0.8-1.5-1.7-1.9-2.8c-0.4-1-0.6-2.3-0.6-3.6
		c0-1.6,0.2-2.9,0.7-4c0.5-1.1,1.1-2,2-2.8c0.8-0.7,1.9-1.2,3.5-1.7c1.5-0.4,3.2-0.5,4.8-0.5c1.7,0,3.3,0.2,4.8,0.5l0,0
		c1.5,0.4,2.6,0.9,3.5,1.6l0,0c0.9,0.8,1.6,1.7,2,2.8c0.5,1.1,0.7,2.4,0.7,4c0,1.4-0.2,2.6-0.6,3.6c-0.4,1.2-1,2.1-1.9,2.8
		c-0.9,0.8-2,1.3-3.4,1.7C187.2,162.5,185.3,162.8,183.2,162.8z M183.3,145.9c-2.1,0-3.5,0.1-4.5,0.4c-1.5,0.4-2.4,0.8-3.1,1.5
		c-0.8,0.7-1.4,1.5-1.8,2.5c-0.4,1-0.6,2.2-0.6,3.7c0,1.2,0.2,2.4,0.5,3.3c0.3,1,0.8,1.8,1.6,2.5c0.8,0.7,1.8,1.2,3,1.6
		c1.3,0.4,3,0.5,4.8,0.5c2,0,3.8-0.2,5-0.5c1.3-0.4,2.3-0.9,3-1.6c0.7-0.6,1.2-1.4,1.6-2.5c0.3-0.9,0.5-2.1,0.5-3.3
		c0-1.5-0.2-2.7-0.6-3.7c-0.4-1-1-1.7-1.8-2.5c-0.8-0.6-1.7-1.1-3.1-1.5C186.5,146.1,185,145.9,183.3,145.9z M183.2,161.6
		c-1.3,0-2.5-0.1-3.6-0.3c-1-0.2-1.9-0.5-2.5-0.9c-0.6-0.4-1.2-0.8-1.7-1.3c-0.4-0.4-0.7-0.9-1-1.5l0-0.1c-0.2-0.6-0.4-1.1-0.5-1.7
		c-0.1-0.6-0.1-1.2-0.1-1.8c0-1.3,0.3-2.5,0.6-3.4c0.3-1,0.9-1.8,1.7-2.4c0.7-0.6,1.6-1,2.9-1.4c1.1-0.3,2.3-0.4,4-0.4
		c1.7,0,3,0.1,4,0.4c1.1,0.3,2.1,0.7,2.9,1.4c0.7,0.6,1.3,1.3,1.7,2.4c0.4,1,0.6,2.1,0.6,3.5c0,0.7,0,1.2-0.1,1.8
		c-0.1,0.6-0.2,1.1-0.5,1.7c-0.2,0.6-0.6,1.1-1,1.6c-0.4,0.5-1.1,0.9-1.7,1.3c-0.7,0.4-1.5,0.7-2.5,0.9
		C185.7,161.5,184.5,161.6,183.2,161.6z M175.3,157.2c0.3,0.6,0.5,1,0.9,1.4c0.3,0.4,0.9,0.8,1.4,1.1c0.6,0.3,1.3,0.6,2.2,0.8
		c1,0.2,2.1,0.3,3.4,0.3c1.2,0,2.3-0.1,3.2-0.3c0.9-0.2,1.7-0.4,2.2-0.8c0.5-0.3,1.1-0.7,1.4-1.1c0.4-0.4,0.7-0.9,0.8-1.3l0-0.1
		c0.2-0.5,0.3-1,0.4-1.5c0.1-0.5,0.1-1,0.1-1.7c0-1.2-0.2-2.3-0.5-3.1c-0.4-0.9-0.8-1.6-1.4-2c-0.7-0.6-1.6-1-2.6-1.2
		c-0.9-0.2-2.2-0.4-3.8-0.4c-1.7,0-2.9,0.1-3.8,0.4c-1.2,0.3-2,0.7-2.6,1.2l0,0c-0.7,0.5-1.2,1.2-1.4,2c-0.3,0.9-0.5,1.9-0.5,3.2
		c0,0.5,0,1.2,0.1,1.7C175,156.1,175.1,156.7,175.3,157.2z"/>
	<path class="st0" d="M217.5,160.6c0,0.2,0,0.4,0,0.5c0,0.2-0.1,0.4-0.1,0.5c-0.1,0.2-0.2,0.3-0.3,0.4c-0.1,0.1-0.3,0.2-0.5,0.2
		s-0.4,0-0.5-0.2c-0.1-0.1-0.2-0.2-0.3-0.4c-0.1-0.2-0.1-0.3-0.1-0.5s0-0.4,0-0.5v-7.3c0-1.1-0.1-2-0.3-2.8c-0.2-0.8-0.5-1.5-0.9-2
		c-0.5-0.5-1.1-0.9-1.9-1.2c-0.8-0.3-1.9-0.4-3.3-0.4c-0.8,0-1.7,0.1-2.7,0.2c-0.9,0.1-1.8,0.4-2.7,0.7c-0.8,0.4-1.6,0.7-2.2,1.3
		c-0.6,0.5-1.1,1.3-1.4,2.1v9.5c0,0.2,0,0.4,0,0.5c0,0.2-0.1,0.4-0.1,0.5c-0.1,0.2-0.2,0.3-0.3,0.4c-0.1,0.1-0.3,0.2-0.4,0.2
		c-0.2,0-0.4,0-0.5-0.2c-0.1-0.1-0.2-0.2-0.3-0.4c-0.1-0.2-0.1-0.3-0.1-0.5c0-0.2,0-0.4,0-0.5v-13.7c0-0.3,0.1-0.5,0.2-0.6
		s0.4-0.3,0.7-0.3c0.4,0,0.5,0.1,0.6,0.3s0.2,0.5,0.2,0.7v2.7c0.4-0.9,0.9-1.6,1.6-2.2c0.7-0.5,1.5-0.9,2.3-1.2
		c0.8-0.3,1.6-0.5,2.6-0.5c0.8-0.1,1.6-0.1,2.4-0.1c1.6,0,2.8,0.1,3.8,0.4c1,0.3,1.8,0.7,2.5,1.3c0.6,0.5,1.1,1.4,1.4,2.4
		c0.3,1,0.4,2.2,0.4,3.7v7.2H217.5z"/>
	<path class="st0" d="M199.8,162.7c-0.2,0-0.6,0-0.8-0.4c-0.1-0.1-0.2-0.2-0.3-0.4c-0.1-0.3-0.1-0.5-0.1-0.7v-14.3
		c0-0.4,0.1-0.6,0.2-0.8c0.1-0.2,0.4-0.5,1.1-0.5c0.2,0,0.8,0,1,0.5c0.1,0.1,0.2,0.5,0.2,0.9v1c0.3-0.3,0.6-0.6,0.9-0.9
		c0.7-0.6,1.5-1,2.4-1.3c0.9-0.3,1.7-0.5,2.7-0.6c0.8-0.1,1.7-0.1,2.4-0.1c1.8,0,3,0.1,4,0.4c1,0.3,1.9,0.7,2.6,1.4
		c0.7,0.6,1.2,1.5,1.5,2.6c0.3,1,0.4,2.1,0.4,3.8v7.7h-0.2v0.1c0,0.2,0,0.3-0.1,0.4c0,0,0,0,0,0.1v0.1l0,0.1
		c-0.1,0.2-0.3,0.4-0.4,0.5c-0.2,0.2-0.5,0.3-0.8,0.3c-0.2,0-0.6,0-0.8-0.4c-0.1-0.1-0.2-0.2-0.3-0.4c-0.1-0.3-0.1-0.5-0.1-0.7v-7.9
		c0-1-0.1-1.9-0.3-2.7c-0.2-0.8-0.4-1.4-0.8-1.8c-0.4-0.5-0.9-0.8-1.7-1.1c-0.7-0.2-1.7-0.3-3.2-0.3c-0.8,0-1.7,0.1-2.6,0.2
		c-0.8,0.1-1.7,0.3-2.5,0.7c-0.9,0.4-1.5,0.7-2.1,1.2c-0.5,0.5-1,1.1-1.2,1.8v10c0,0.2,0,0.3-0.1,0.4c0,0,0,0,0,0.1v0.1l0,0.1
		c-0.1,0.2-0.3,0.4-0.4,0.5C200.3,162.5,200,162.7,199.8,162.7z M199.7,161.8L199.7,161.8C199.7,161.8,199.7,161.8,199.7,161.8z
		 M199.7,161.8L199.7,161.8L199.7,161.8z M199.7,161.8C199.7,161.8,199.7,161.8,199.7,161.8c0.1,0,0.1,0,0.1-0.1
		c0.1-0.1,0.1-0.1,0.2-0.2c0,0,0-0.1,0-0.1c0-0.1,0-0.1,0-0.2v-10.1l0-0.1c0-0.1,0.1-0.3,0.2-0.4V147c0-0.2-0.1-0.4-0.1-0.5
		c0,0-0.1,0-0.2,0c-0.2,0-0.3,0-0.3,0.1c-0.1,0.1-0.1,0.3-0.1,0.4v14.3c0,0.2,0,0.2,0,0.3C199.5,161.6,199.6,161.6,199.7,161.8
		L199.7,161.8z M216.6,161.7C216.6,161.7,216.6,161.7,216.6,161.7c0.1,0,0.2,0,0.2-0.1c0.1-0.1,0.1-0.1,0.2-0.2c0,0,0-0.1,0-0.1
		c0-0.1,0-0.1,0-0.2v-1h0.2v-6.8c0-1.6-0.1-2.7-0.4-3.5c-0.3-1-0.7-1.7-1.2-2.2c-0.6-0.5-1.4-0.9-2.3-1.2c-0.9-0.2-2.1-0.4-3.7-0.4
		c-0.7,0-1.5,0-2.3,0.1c-0.9,0.1-1.6,0.3-2.5,0.5c-0.8,0.3-1.5,0.6-2.2,1.1c-0.2,0.2-0.4,0.3-0.6,0.5c0.5-0.4,1.1-0.7,1.9-1
		c0.9-0.4,1.9-0.7,2.8-0.8c0.9-0.1,1.9-0.2,2.7-0.2c1.6,0,2.6,0.1,3.4,0.4c1,0.3,1.6,0.7,2.1,1.3c0.5,0.6,0.8,1.3,1,2.2
		c0.2,0.9,0.3,1.8,0.3,2.9v7.9c0,0.2,0,0.2,0,0.3C216.4,161.5,216.4,161.5,216.6,161.7L216.6,161.7z"/>
	<path class="st0" d="M240.7,157.6c0-0.7-0.3-1.4-0.8-1.7s-1.2-0.7-2.1-0.9c-0.8-0.2-1.8-0.3-2.9-0.3c-1.1,0-2.2,0-3.4,0
		c-1.2,0-2.3,0-3.4-0.2c-1.1-0.1-2.1-0.3-2.9-0.5s-1.6-0.7-2.1-1.3c-0.5-0.5-0.8-1.3-0.8-2.3c0-1,0.3-1.8,0.8-2.4s1.2-1.1,2.1-1.5
		c0.9-0.4,1.8-0.6,2.9-0.7c1.1-0.2,2.2-0.2,3.3-0.2c1.8,0,3.6,0.2,5.1,0.5c1.6,0.3,3.1,0.8,4.4,1.6c0.2,0.1,0.3,0.2,0.3,0.3
		c0,0.1,0.1,0.2,0.1,0.4s-0.1,0.4-0.2,0.5c-0.1,0.2-0.3,0.2-0.4,0.2c-0.1,0-0.2,0-0.2,0c-1.2-0.6-2.6-1.1-4-1.5
		c-1.6-0.4-3.2-0.5-5.1-0.5c-0.9,0-1.9,0.1-2.7,0.2c-0.9,0.1-1.7,0.4-2.4,0.6c-0.7,0.3-1.3,0.6-1.6,1.1c-0.5,0.5-0.6,1-0.6,1.7
		s0.3,1.3,0.8,1.6c0.5,0.4,1.2,0.6,2.1,0.8c0.9,0.2,1.8,0.3,2.9,0.3c1.1,0,2.2,0,3.4,0s2.3,0.1,3.4,0.2c1.1,0.1,2.1,0.3,2.9,0.6
		s1.6,0.7,2.1,1.3c0.5,0.5,0.8,1.4,0.8,2.3c0,0.8-0.3,1.6-0.8,2.2c-0.5,0.6-1.3,1.1-2.1,1.5c-0.9,0.4-1.9,0.6-3.1,0.8
		s-2.4,0.3-3.6,0.3c-0.7,0-1.6,0-2.5,0c-0.9,0-1.7-0.1-2.7-0.2s-1.7-0.4-2.6-0.6c-0.8-0.3-1.6-0.6-2.1-1.2c-0.2-0.2-0.3-0.4-0.3-0.5
		c0-0.2,0.1-0.4,0.2-0.5c0.1-0.1,0.3-0.2,0.4-0.2s0.2,0,0.3,0.1c0.5,0.5,1.2,0.7,1.9,1c0.6,0.3,1.4,0.5,2.2,0.6
		c0.7,0.2,1.6,0.2,2.4,0.2c0.8,0,1.6,0,2.6,0c1.1,0,2.1-0.1,3-0.2c1-0.1,1.8-0.3,2.6-0.5c0.7-0.3,1.4-0.6,1.8-1
		C240.5,158.8,240.7,158.3,240.7,157.6z"/>
	<path class="st0" d="M232.9,162.9h-2.5c-0.9,0-1.6-0.1-2.5-0.2l-0.2,0c-1-0.1-1.8-0.4-2.7-0.7c-1-0.3-1.7-0.8-2.3-1.3
		c-0.3-0.3-0.4-0.6-0.4-0.9c0-0.3,0.1-0.6,0.3-0.8c0.2-0.2,0.4-0.3,0.7-0.3c0.1,0,0.4,0,0.6,0.2c0.5,0.4,1,0.6,1.8,0.9
		c0.6,0.3,1.3,0.4,2.1,0.6c0.7,0.2,1.5,0.2,2.3,0.2h2.6c1.1,0,2.1-0.1,3-0.2c0.9-0.1,1.7-0.3,2.5-0.5c0.6-0.2,1.2-0.5,1.6-0.9
		c0.3-0.5,0.5-1,0.5-1.5c0-0.6-0.2-1.1-0.6-1.4c-0.5-0.3-1.1-0.7-1.9-0.8c-0.8-0.2-1.8-0.3-2.8-0.3h-3.4c-1.2,0-2.3,0-3.4-0.2
		c-1.2-0.1-2.2-0.3-3-0.6c-0.9-0.3-1.7-0.8-2.3-1.4c-0.6-0.6-1-1.5-1-2.6c0-1.1,0.3-2.1,1-2.7c0.5-0.5,1.2-1.2,2.3-1.6
		c1.1-0.4,2-0.7,3-0.8c1.1-0.2,2.3-0.2,3.4-0.2c1.7,0,3.5,0.2,5.2,0.5c1.6,0.3,3.2,0.9,4.5,1.6c0.3,0.2,0.5,0.4,0.5,0.6l0,0
		c0,0.1,0.1,0.2,0.1,0.4c0,0.3-0.1,0.5-0.3,0.7c-0.1,0.2-0.3,0.4-0.7,0.4h-0.3l-0.1-0.1c-1-0.6-2.3-1-3.9-1.4
		c-1.6-0.4-3.1-0.5-5-0.5c-0.7,0-1.6,0.1-2.7,0.2c-0.7,0.1-1.5,0.3-2.3,0.6c-0.7,0.3-1.2,0.6-1.5,1l0,0c-0.4,0.4-0.5,0.8-0.5,1.4
		c0,0.6,0.2,1,0.6,1.3c0.5,0.4,1.1,0.6,1.9,0.8c0.9,0.2,1.8,0.3,2.8,0.3h3.4c1.2,0,2.3,0.1,3.4,0.2c1.3,0.1,2.3,0.3,3.1,0.7
		c0.8,0.4,1.6,0.7,2.2,1.4c0.6,0.6,1,1.5,1,2.6c0,0.9-0.3,1.8-0.9,2.5c-0.5,0.6-1.3,1.1-2.3,1.6c-1,0.4-2,0.7-3.2,0.9
		C235.3,162.8,234.1,162.9,232.9,162.9z M223.3,159.7C223.3,159.8,223.3,159.8,223.3,159.7c-0.1,0.1-0.1,0.1-0.1,0.2
		c0,0.1,0.1,0.1,0.1,0.2c0.4,0.4,1.1,0.8,1.9,1.1c0.8,0.3,1.6,0.5,2.5,0.6l0.2,0c0.8,0.1,1.6,0.2,2.4,0.2h2.5c1.2,0,2.3-0.1,3.5-0.3
		c1.1-0.2,2.1-0.4,3-0.8c0.8-0.4,1.5-0.8,1.9-1.3c0.5-0.6,0.7-1.2,0.7-1.9c0-0.8-0.2-1.5-0.7-2c-0.5-0.5-1.1-0.8-2-1.2
		c-0.7-0.3-1.6-0.5-2.8-0.6c-1.1-0.1-2.2-0.2-3.4-0.2h-3.4c-1.1,0-2.1-0.1-3-0.3c-0.9-0.2-1.6-0.5-2.3-0.9c-0.7-0.5-1-1.1-1-2
		c0-0.9,0.2-1.5,0.8-2c0.4-0.5,1-0.9,1.8-1.2c0.8-0.4,1.7-0.6,2.5-0.7c1.1-0.1,2-0.2,2.8-0.2c1.9,0,3.6,0.2,5.2,0.6
		c1.6,0.4,3,0.9,4,1.5l0.1,0l0.1-0.1c0,0,0.1-0.1,0.1-0.1c0,0,0,0,0-0.1c0,0,0-0.1,0-0.1c0,0,0,0,0,0l0,0c-1.2-0.7-2.7-1.2-4.3-1.5
		c-1.7-0.3-3.4-0.5-5.1-0.5c-1.1,0-2.2,0-3.2,0.2l0,0c-0.9,0.1-1.8,0.3-2.8,0.7c-0.9,0.3-1.5,0.9-2,1.4c-0.5,0.5-0.7,1.2-0.7,2.1
		c0,0.9,0.2,1.5,0.7,2c0.5,0.5,1.2,0.9,1.9,1.2c0.8,0.3,1.7,0.4,2.8,0.5l0,0c1.1,0.2,2.2,0.2,3.3,0.2h3.4c1.1,0,2.2,0.1,3,0.3
		c1,0.2,1.7,0.6,2.3,1c0.7,0.4,1,1.2,1,2.1c0,0.8-0.3,1.4-0.7,2.1l0,0.1l-0.1,0.1c-0.5,0.4-1.2,0.8-2,1.1c-0.8,0.3-1.7,0.5-2.7,0.6
		c-0.9,0.1-1.9,0.2-3.1,0.2h-2.6c-0.8,0-1.7,0-2.5-0.2c-0.9-0.2-1.6-0.4-2.3-0.7C224.7,160.5,224,160.3,223.3,159.7z M223.3,159.7
		C223.3,159.7,223.3,159.7,223.3,159.7C223.3,159.7,223.3,159.7,223.3,159.7z"/>
	<path class="st1" d="M272,145.9c0,0.8-0.1,1.6-0.4,2.3c-0.3,0.6-0.6,1.2-1,1.7s-0.9,0.9-1.6,1.2c-0.6,0.3-1.2,0.5-1.8,0.8
		c-0.6,0.3-1.4,0.4-2,0.5c-0.7,0.1-1.4,0.2-2.1,0.2l7.8,8.2c0.1,0.1,0.2,0.3,0.3,0.4c0.1,0.1,0.1,0.3,0.1,0.4c0,0.2-0.1,0.4-0.2,0.5
		c-0.1,0.1-0.3,0.2-0.5,0.2c-0.2,0-0.3,0-0.5-0.1c-0.2-0.1-0.4-0.2-0.5-0.4l-8.5-9.1h-7.9v8c0,0.2,0,0.5,0,0.6s-0.1,0.4-0.1,0.5
		c-0.1,0.2-0.2,0.3-0.3,0.4c-0.1,0.1-0.3,0.2-0.5,0.2c-0.4,0-0.6-0.2-0.8-0.5c-0.1-0.3-0.2-0.7-0.2-1.1v-21.2c0-0.2,0-0.4,0-0.5
		c0-0.1,0-0.2,0.1-0.2c0,0,0.1-0.1,0.2-0.1c0.1,0,0.3,0,0.5,0h6.1c1.3,0,2.6,0,3.8,0s2.3,0.1,3.3,0.2c1,0.2,1.9,0.4,2.7,0.6
		c0.8,0.3,1.6,0.7,2.1,1.3c0.5,0.5,1,1.2,1.4,2C271.9,143.9,272,144.7,272,145.9z M270.2,145.8c0-1.4-0.3-2.6-0.7-3.3
		c-0.5-0.8-1.3-1.4-2.3-1.8c-1-0.5-2.3-0.5-3.8-0.5s-3.2,0-5.2,0h-5.1v11.1h8c1.2,0,2.4-0.1,3.5-0.2c1.1-0.1,2.1-0.4,2.9-0.7
		c0.8-0.4,1.5-0.9,2-1.6C269.9,147.9,270.2,147,270.2,145.8z"/>
	<path class="st1" d="M252.4,162.7c-0.5,0-0.8-0.2-1.1-0.6l0,0l0,0c-0.1-0.3-0.2-0.8-0.2-1.2v-21.6c0-0.3,0.1-0.4,0.3-0.5
		c0.1-0.1,0.2-0.1,0.3-0.1H262c1.2,0,2.3,0.1,3.3,0.2l0,0c0.9,0.2,1.9,0.4,2.8,0.7c0.9,0.3,1.6,0.8,2.2,1.4c0.6,0.6,1.1,1.3,1.4,2.1
		c0.4,0.9,0.6,1.8,0.6,3c0,1-0.1,1.8-0.4,2.4c-0.3,0.7-0.7,1.2-1,1.8c-0.4,0.6-0.9,1-1.7,1.3c-0.3,0.1-0.6,0.3-0.9,0.4
		c-0.3,0.1-0.6,0.3-0.9,0.4c-0.6,0.3-1.4,0.4-2,0.5l-0.3,0c-0.4,0.1-0.8,0.1-1.2,0.1l7.3,7.7c0.1,0.1,0.1,0.1,0.2,0.2
		c0,0,0.1,0.1,0.1,0.1c0.2,0.2,0.2,0.5,0.2,0.6c0,0.3-0.1,0.5-0.3,0.7c-0.2,0.2-0.5,0.3-0.8,0.3c-0.2,0-0.4,0-0.6-0.1
		c-0.2-0.1-0.4-0.2-0.6-0.4l-8.4-9h-7.4v8.3c0,0.1,0,0.3-0.1,0.4c0,0.1,0,0.1,0,0.2v0.1l0,0.1c-0.1,0.2-0.2,0.4-0.3,0.5
		C252.9,162.6,252.6,162.7,252.4,162.7z M251.8,161.8c0.1,0.2,0.3,0.3,0.5,0.3c0.1,0,0.2-0.1,0.2-0.1c0.1-0.1,0.1-0.1,0.2-0.2
		c0-0.1,0-0.2,0.1-0.3c0-0.1,0-0.1,0-0.2v-8.9h8.4l8.6,9.2c0.1,0.1,0.3,0.2,0.5,0.3c0.1,0.1,0.1,0.1,0.3,0.1c0.2,0,0.3-0.1,0.3-0.1
		c0,0,0.1-0.1,0.1-0.2c0,0,0-0.1,0-0.1c-0.1-0.1-0.1-0.1-0.2-0.2c0,0-0.1-0.1-0.1-0.1l-8.3-8.8h0.8c0.6,0,1.2-0.1,1.8-0.2l0.3,0
		c0.6-0.1,1.2-0.2,1.8-0.4c0.3-0.1,0.6-0.3,0.9-0.4c0.3-0.1,0.6-0.3,0.9-0.4c0.7-0.3,1.1-0.6,1.4-1.1c0.4-0.6,0.7-1.1,1-1.7
		c0.2-0.5,0.3-1.3,0.3-2.2c0-1.1-0.2-1.9-0.5-2.7c-0.3-0.7-0.8-1.4-1.3-1.9c-0.5-0.5-1.2-1-2-1.2c-0.8-0.3-1.8-0.5-2.7-0.6
		c-1-0.1-2.1-0.2-3.3-0.2h-10.3v21.5C251.7,161.1,251.8,161.5,251.8,161.8z M251.5,139.4L251.5,139.4
		C251.4,139.4,251.5,139.4,251.5,139.4z M261.1,151.6h-8.3v-11.8h10.7c1.4,0,2.8,0.1,3.9,0.6c1.1,0.5,1.9,1.1,2.4,2
		c0.5,0.8,0.8,2.1,0.8,3.5c0,1.2-0.3,2.2-0.8,3l0,0c-0.6,0.8-1.3,1.4-2.1,1.8c-0.9,0.4-2,0.7-3,0.8
		C263.4,151.5,262.3,151.6,261.1,151.6z M253.4,150.9h7.6c1.2,0,2.3-0.1,3.5-0.2c1-0.1,2-0.3,2.8-0.7c0.7-0.3,1.3-0.8,1.9-1.5
		c0.5-0.7,0.7-1.6,0.7-2.6c0-1.3-0.2-2.4-0.7-3.1c-0.5-0.7-1.1-1.2-2.1-1.7c-1-0.5-2.3-0.5-3.6-0.5h-10V150.9z"/>
	<path class="st1" d="M284.7,161.1c1.4,0,2.5-0.1,3.5-0.3c1-0.2,1.8-0.4,2.6-0.6c0.7-0.3,1.3-0.5,1.7-0.7c0.5-0.3,0.8-0.5,1.1-0.6
		c0.1,0,0.2,0,0.2,0c0.2,0,0.3,0.1,0.5,0.2c0.1,0.2,0.2,0.3,0.2,0.5s-0.1,0.3-0.2,0.4c-0.1,0.1-0.4,0.4-0.8,0.5
		c-0.5,0.3-1,0.5-1.7,0.8c-0.7,0.3-1.7,0.5-2.8,0.7c-1.1,0.2-2.5,0.3-4,0.3c-1.6,0-3-0.2-4.1-0.6c-1.1-0.5-2.1-1-2.7-1.7
		c-0.7-0.7-1.3-1.6-1.6-2.7c-0.4-1-0.5-2.2-0.5-3.4c0-1.6,0.3-3,0.8-4.1c0.5-1.1,1.2-1.9,2.1-2.6c0.9-0.6,2-1.1,3.2-1.4
		c1.2-0.3,2.6-0.4,3.9-0.4c2.9,0,5.1,0.5,6.6,1.6s2.2,2.7,2.2,4.8c0,0.2,0,0.4,0,0.6s-0.1,0.5-0.1,0.6c-0.1,0.2-0.1,0.4-0.2,0.5
		s-0.1,0.2-0.2,0.2h-6.2h-10.4c0,1.3,0.2,2.4,0.5,3.3c0.3,0.9,0.8,1.6,1.4,2.2c0.6,0.5,1.4,1,2.3,1.2
		C282.8,160.7,283.5,161.1,284.7,161.1z M285.8,146.7c-1.3,0-2.5,0.1-3.5,0.4c-1,0.3-1.8,0.5-2.6,1.1c-0.7,0.5-1.3,1.1-1.6,1.9
		s-0.6,1.7-0.6,2.9h15.9V152c0-0.7-0.1-1.4-0.4-2c-0.3-0.6-0.7-1.2-1.3-1.6c-0.5-0.5-1.4-0.8-2.3-1.1
		C288.3,146.9,287.2,146.7,285.8,146.7z"/>
	<path class="st1" d="M284.8,162.5c-1.8,0-3.2-0.2-4.2-0.7c-1.4-0.6-2.3-1.1-2.9-1.8c-0.8-0.8-1.3-1.7-1.6-2.8
		c-0.3-0.9-0.5-2-0.5-3.5c0-1.7,0.3-3.1,0.9-4.3c0.6-1.2,1.3-2,2.2-2.7c0.9-0.7,2.1-1.1,3.3-1.4c1.1-0.3,2.4-0.4,4-0.4
		c3,0,5.3,0.6,6.8,1.7c1.6,1.2,2.3,2.8,2.3,5v0.6c0,0.2,0,0.3-0.1,0.5c0,0.1,0,0.1,0,0.2v0.1l0,0.1c0,0.1,0,0.1-0.1,0.2
		c0,0.1-0.1,0.2-0.1,0.3c-0.1,0.2-0.2,0.4-0.5,0.4H278c0,1.1,0.2,2,0.5,2.8l0,0c0.2,0.7,0.6,1.4,1.3,2c0.7,0.6,1.4,1,2.1,1.1
		c0.3,0.1,0.7,0.2,1,0.3c0.6,0.2,1.1,0.4,1.8,0.4c1.3,0,2.4-0.1,3.4-0.3c0.8-0.2,1.7-0.3,2.5-0.6l0.3-0.1c0.6-0.2,1-0.4,1.3-0.6
		c0.2-0.1,0.4-0.2,0.6-0.3c0.2-0.1,0.4-0.2,0.5-0.3l0.1-0.1h0.3c0.2,0,0.4,0.1,0.5,0.2c0,0,0.1,0,0.1,0.1l0.1,0.1l0.1,0.1
		c0,0,0,0.1,0.1,0.1c0.1,0.1,0.2,0.3,0.2,0.5c0,0.3-0.2,0.5-0.3,0.6c-0.1,0.1-0.4,0.4-0.9,0.6c-0.5,0.3-1.1,0.6-1.8,0.8
		c-0.8,0.3-1.9,0.6-2.9,0.7C287.7,162.5,286.4,162.5,284.8,162.5z M286,145.7c-1.6,0-2.8,0.1-3.9,0.4c-1.2,0.3-2.2,0.7-3.1,1.3
		c-0.8,0.6-1.4,1.3-2,2.4c-0.5,1-0.8,2.4-0.8,4c0,1.4,0.1,2.5,0.4,3.3l0,0c0.3,0.9,0.8,1.8,1.5,2.5c0.5,0.6,1.4,1.1,2.6,1.7
		c1,0.4,2.3,0.6,4,0.6c1.6,0,2.9-0.1,4-0.3c1-0.2,2-0.4,2.8-0.7c0.6-0.2,1.2-0.5,1.7-0.8l0,0c0.4-0.2,0.6-0.4,0.7-0.5
		c0.1-0.1,0.1-0.1,0.1-0.1c0,0,0-0.1-0.1-0.2c0,0,0,0,0-0.1c0,0,0,0-0.1,0c-0.1-0.1-0.1-0.1-0.2-0.1h-0.1c-0.1,0.1-0.3,0.2-0.5,0.3
		c-0.2,0.1-0.3,0.2-0.5,0.3c-0.4,0.2-0.9,0.4-1.5,0.6l-0.3,0.1c-0.8,0.3-1.7,0.5-2.6,0.7c-1.1,0.2-2.2,0.3-3.5,0.3
		c-0.8,0-1.4-0.2-2-0.4c-0.3-0.1-0.6-0.2-0.9-0.3c-0.9-0.2-1.6-0.6-2.4-1.3l0,0c-0.7-0.7-1.2-1.5-1.5-2.3c-0.4-0.9-0.6-2.1-0.6-3.4
		v-0.3h16.9c0-0.1,0-0.1,0.1-0.2c0-0.1,0-0.2,0.1-0.3c0-0.1,0-0.2,0-0.2c0-0.1,0-0.2,0-0.3v-0.6c0-2-0.7-3.5-2.1-4.5
		C291,146.2,288.8,145.7,286,145.7z M293.7,153.4h-16.6v-0.3c0-1.1,0.2-2,0.7-3.1c0.4-0.9,1-1.6,1.8-2.1c0.7-0.6,1.5-0.8,2.7-1.1
		c0.9-0.3,2.1-0.4,3.6-0.4c1.3,0,2.5,0.2,3.7,0.5c1.1,0.3,1.9,0.7,2.4,1.2c0.6,0.5,1.1,1.1,1.4,1.8c0.3,0.6,0.4,1.3,0.4,2.1V153.4z
		 M277.8,152.7H293V152c0-0.8-0.1-1.3-0.3-1.9c-0.2-0.5-0.6-1.1-1.2-1.5c-0.5-0.4-1.2-0.8-2.2-1c-1.2-0.3-2.4-0.4-3.6-0.4
		c-1.4,0-2.5,0.1-3.4,0.4c-1.1,0.3-1.8,0.6-2.5,1l0,0c-0.7,0.4-1.2,1-1.5,1.8C278,151.1,277.8,151.9,277.8,152.7z"/>
	<path class="st1" d="M309.2,167.8c1.2,0,2.2-0.1,3.2-0.3c1-0.2,1.8-0.5,2.6-0.9c0.7-0.5,1.3-0.9,1.6-1.6c0.4-0.6,0.6-1.5,0.6-2.4
		v-2.5c-0.6,0.5-1.3,0.7-1.9,1.1c-0.7,0.3-1.4,0.5-2.1,0.7s-1.5,0.3-2.2,0.4s-1.5,0.1-2.1,0.1c-1.6,0-3-0.1-4.3-0.4
		c-1.3-0.3-2.3-0.6-3.2-1.3c-0.9-0.6-1.6-1.5-2-2.6c-0.5-1.1-0.6-2.5-0.6-4.1c0-1.6,0.3-3,0.8-4.1c0.5-1.1,1.3-1.9,2.2-2.7
		c0.9-0.7,2.1-1.1,3.5-1.4c1.4-0.3,2.8-0.4,4.5-0.4c1.5,0,2.7,0.1,3.6,0.4s1.6,0.6,2.3,1c0.6,0.4,1,0.8,1.3,1.3
		c0.3,0.5,0.5,0.9,0.5,1.3c0-0.3,0-0.5,0-0.9s0-0.6,0-1c0-0.5,0-0.9,0.2-1.3c0.1-0.4,0.3-0.5,0.6-0.5c0.2,0,0.4,0,0.5,0.2
		c0.1,0.1,0.2,0.2,0.3,0.4c0.1,0.2,0.1,0.3,0.2,0.5c0,0.2,0,0.4,0,0.5v15.3c0,2.2-0.8,3.9-2.6,5c-1.7,1.1-4,1.6-7.1,1.6
		c-1,0-1.9-0.1-2.7-0.2c-0.8-0.1-1.5-0.2-2.1-0.4c-0.6-0.2-1.2-0.4-1.6-0.5c-0.5-0.2-0.9-0.5-1.3-0.6c-0.2,0-0.4-0.2-0.5-0.4
		c-0.2-0.2-0.3-0.4-0.3-0.6s0.1-0.5,0.3-0.5c0.2-0.1,0.4-0.2,0.5-0.2s0.3,0,0.5,0.2c0.2,0.1,0.4,0.2,0.5,0.3
		c0.2,0.1,0.5,0.3,0.7,0.4c0.3,0.1,0.5,0.3,0.9,0.4c0.5,0.2,1.3,0.4,2.2,0.5C307.5,167.7,307.9,167.8,309.2,167.8z M309.8,147
		c-1.6,0-3.1,0.1-4.3,0.4c-1.2,0.3-2.2,0.6-2.9,1.2c-0.7,0.5-1.3,1.3-1.6,2.2c-0.4,0.9-0.5,2-0.5,3.3c0,1.3,0.2,2.4,0.5,3.3
		c0.3,0.9,0.7,1.6,1.5,2.2c0.6,0.5,1.6,0.9,2.7,1.2c1.1,0.3,2.5,0.4,4,0.4c0.7,0,1.5,0,2.2-0.1c0.7-0.1,1.5-0.2,2.2-0.4
		s1.4-0.4,2.1-0.6c0.7-0.3,1.3-0.5,1.8-1v-7.9c-0.1-0.4-0.3-0.8-0.5-1.3c-0.3-0.5-0.6-0.9-1.2-1.4c-0.5-0.5-1.3-0.7-2.2-1
		C312.3,147.1,311.1,147,309.8,147z"/>
	<path class="st1" d="M309.6,169.6c-1,0-2-0.1-2.8-0.2c-0.8-0.1-1.5-0.2-2.2-0.4c-0.6-0.2-1.2-0.4-1.7-0.6c-0.3-0.1-0.7-0.3-0.9-0.5
		c-0.1-0.1-0.2-0.1-0.3-0.2c-0.3,0-0.5-0.3-0.7-0.5c-0.3-0.3-0.4-0.5-0.4-0.9c0-0.5,0.3-0.7,0.5-0.8c0.3-0.1,0.4-0.2,0.6-0.2
		c0.1,0,0.4,0,0.7,0.2l0.5,0.3c0.1,0,0.1,0.1,0.2,0.1c0.2,0.1,0.3,0.2,0.5,0.2c0.1,0,0.3,0.1,0.4,0.2c0.2,0.1,0.3,0.2,0.5,0.2l0,0
		c0.5,0.2,1.3,0.4,2.2,0.5c0.9,0.2,1.3,0.3,2.6,0.3c1.1,0,2.1-0.1,3.1-0.3c1-0.2,1.8-0.5,2.5-0.9c0.7-0.4,1.2-0.8,1.5-1.5
		c0.3-0.5,0.6-1.3,0.6-2.2v-1.9c-0.3,0.2-0.5,0.3-0.8,0.4c-0.2,0.1-0.4,0.2-0.6,0.3l0,0c-0.2,0.1-0.3,0.1-0.5,0.2
		c-0.6,0.2-1.1,0.4-1.7,0.6c-0.8,0.2-1.5,0.3-2.2,0.4c-0.8,0.1-1.5,0.1-2.1,0.1c-1.8,0-3.2-0.1-4.4-0.4c-1.4-0.3-2.4-0.7-3.3-1.3
		c-1-0.7-1.6-1.5-2.1-2.7c-0.4-1.1-0.7-2.5-0.7-4.2c0-1.7,0.3-3.1,0.9-4.3c0.5-1.1,1.3-1.9,2.3-2.8c1.1-0.8,2.4-1.2,3.6-1.4
		c1.3-0.3,2.7-0.4,4.6-0.4c1.7,0,2.8,0.1,3.7,0.4c1,0.3,1.8,0.7,2.4,1c0.7,0.4,1.1,0.9,1.3,1.3v-0.3c0-0.5,0-1,0.2-1.4
		c0.1-0.5,0.5-0.8,1-0.8c0.2,0,0.5,0,0.8,0.3c0.1,0.1,0.2,0.2,0.3,0.5c0.1,0.1,0.1,0.2,0.1,0.3c0,0.1,0,0.1,0.1,0.2l0,0.1v15.9
		c0,2.4-0.9,4.2-2.7,5.3C315.1,169,312.7,169.6,309.6,169.6z M301.7,166.1c-0.1,0-0.2,0.1-0.3,0.1c0,0-0.1,0-0.1,0.2
		c0,0.2,0,0.3,0.2,0.4c0.1,0.1,0.3,0.3,0.3,0.3h0.1l0.1,0c0.1,0.1,0.2,0.1,0.4,0.2c0.3,0.1,0.6,0.3,0.9,0.4c0.4,0.2,1,0.4,1.6,0.5
		c0.6,0.2,1.2,0.3,2.1,0.4c0.8,0.1,1.7,0.2,2.7,0.2c3,0,5.3-0.5,7-1.6c1.6-1,2.4-2.6,2.4-4.8v-15.8c0-0.1-0.1-0.1-0.1-0.2
		c0-0.1,0-0.1-0.1-0.2c-0.1-0.1-0.1-0.2-0.2-0.3c-0.1-0.1-0.1-0.1-0.3-0.1c-0.2,0-0.2,0-0.3,0.3l0,0.1c-0.1,0.3-0.1,0.7-0.1,1.1v4.6
		l-0.2-0.7v7.7l-0.1,0.1c-0.6,0.5-1.2,0.8-1.9,1.1c-0.8,0.3-1.5,0.5-2.1,0.7c-0.8,0.2-1.5,0.3-2.2,0.4c-0.8,0.1-1.5,0.1-2.2,0.1
		c-1.8,0-3.1-0.1-4.1-0.4c-1.3-0.3-2.2-0.7-2.8-1.3c-0.7-0.6-1.3-1.3-1.6-2.4c-0.3-1-0.5-2.2-0.5-3.4c0-1.3,0.2-2.5,0.6-3.4
		c0.4-1,1-1.8,1.8-2.3c0.7-0.5,1.7-0.9,3.1-1.2c1.1-0.3,2.5-0.4,4.4-0.4c1.2,0,2.5,0.1,3.7,0.5c0.9,0.3,1.7,0.6,2.3,1.1
		c0.5,0.4,0.9,0.9,1.3,1.5c0.1,0.2,0.2,0.3,0.3,0.5l-0.2-0.6c-0.1-0.4-0.3-0.8-0.5-1.2c-0.2-0.4-0.5-0.8-1.2-1.2
		c-0.5-0.3-1.3-0.7-2.2-1c-0.8-0.2-1.9-0.4-3.5-0.4c-1.8,0-3.2,0.1-4.4,0.4c-1.1,0.2-2.4,0.6-3.3,1.3c-0.9,0.8-1.6,1.6-2.1,2.5
		c-0.5,1-0.8,2.4-0.8,4c0,1.7,0.2,3,0.6,4c0.4,1.1,1,1.8,1.9,2.4c0.8,0.6,1.7,0.9,3.1,1.2c1.2,0.2,2.5,0.4,4.2,0.4
		c0.6,0,1.4,0,2.1-0.1c0.7-0.1,1.4-0.2,2.2-0.4c0.6-0.1,1.1-0.3,1.6-0.5c0.1-0.1,0.3-0.1,0.4-0.2c0.2-0.1,0.4-0.2,0.6-0.3
		c0.4-0.2,0.8-0.4,1.2-0.7l0.5-0.4v3.1c0,1.1-0.4,2-0.7,2.5c-0.4,0.8-1.1,1.4-1.8,1.8l0,0c-0.8,0.4-1.6,0.8-2.7,0.9
		c-1.1,0.2-2.1,0.3-3.3,0.3c-1.3,0-1.8-0.1-2.7-0.3c-0.9-0.2-1.7-0.4-2.2-0.6c-0.2-0.1-0.4-0.2-0.6-0.2c-0.1-0.1-0.2-0.1-0.3-0.1
		c-0.2-0.1-0.4-0.2-0.6-0.3c-0.1,0-0.1-0.1-0.2-0.1l-0.6-0.3l0,0C301.9,166.1,301.8,166.1,301.7,166.1z M309.8,147.3
		c-1.8,0-3.2,0.1-4.2,0.4c-1.3,0.3-2.2,0.7-2.8,1.1c-0.7,0.5-1.2,1.2-1.5,2.1c-0.3,0.9-0.5,1.9-0.5,3.2c0,1.1,0.1,2.2,0.4,3.2
		c0.3,0.9,0.7,1.5,1.3,2c0.6,0.5,1.4,0.8,2.5,1.1c1,0.2,2.2,0.4,3.9,0.4c0.7,0,1.4,0,2.2-0.1c0.7-0.1,1.4-0.2,2.2-0.4
		c0.6-0.2,1.3-0.3,2.1-0.6c0.6-0.2,1.1-0.5,1.6-0.9v-7.7c-0.1-0.4-0.3-0.8-0.5-1.2c-0.3-0.5-0.6-0.9-1.1-1.3
		c-0.5-0.4-1.2-0.7-2.1-0.9C312.4,147.5,311.4,147.3,309.8,147.3z"/>
	<path class="st1" d="M332.9,161.1c1.4,0,2.5-0.1,3.5-0.3c1-0.2,1.8-0.4,2.6-0.6c0.7-0.3,1.3-0.5,1.7-0.7c0.5-0.3,0.8-0.5,1.1-0.6
		c0.1,0,0.2,0,0.2,0c0.2,0,0.3,0.1,0.5,0.2c0.1,0.2,0.2,0.3,0.2,0.5s-0.1,0.3-0.2,0.4c-0.1,0.1-0.4,0.4-0.8,0.5
		c-0.5,0.3-1,0.5-1.7,0.8c-0.7,0.3-1.7,0.5-2.8,0.7c-1.1,0.2-2.5,0.3-4,0.3c-1.6,0-3-0.2-4.1-0.6c-1.1-0.5-2.1-1-2.7-1.7
		c-0.7-0.7-1.3-1.6-1.6-2.7c-0.4-1-0.5-2.2-0.5-3.4c0-1.6,0.3-3,0.8-4.1c0.5-1.1,1.2-1.9,2.1-2.6c0.9-0.6,2-1.1,3.2-1.4
		c1.2-0.3,2.6-0.4,3.9-0.4c2.9,0,5.1,0.5,6.6,1.6s2.2,2.7,2.2,4.8c0,0.2,0,0.4,0,0.6s-0.1,0.5-0.1,0.6c-0.1,0.2-0.1,0.4-0.2,0.5
		s-0.1,0.2-0.2,0.2h-6.2h-10.4c0,1.3,0.2,2.4,0.5,3.3c0.3,0.9,0.8,1.6,1.4,2.2c0.6,0.5,1.4,1,2.3,1.2
		C331,160.7,331.7,161.1,332.9,161.1z M334,146.7c-1.3,0-2.5,0.1-3.5,0.4c-1,0.3-1.8,0.5-2.6,1.1c-0.7,0.5-1.3,1.1-1.6,1.9
		s-0.6,1.7-0.6,2.9h15.9V152c0-0.7-0.1-1.4-0.4-2c-0.3-0.6-0.7-1.2-1.3-1.6c-0.5-0.5-1.4-0.8-2.3-1.1
		C336.6,146.9,335.5,146.7,334,146.7z"/>
	<path class="st1" d="M333,162.5c-1.8,0-3.2-0.2-4.2-0.7c-1.4-0.6-2.3-1.1-2.9-1.8c-0.8-0.8-1.3-1.7-1.6-2.8c-0.3-0.9-0.5-2-0.5-3.5
		c0-1.7,0.3-3.1,0.9-4.3c0.6-1.2,1.3-2,2.2-2.7c0.9-0.7,2-1.1,3.3-1.4c1.1-0.3,2.4-0.4,4-0.4c3,0,5.3,0.6,6.8,1.7
		c1.6,1.2,2.3,2.8,2.3,5v0.6c0,0.2,0,0.3-0.1,0.5c0,0.1,0,0.1,0,0.2v0.1l0,0.1c0,0.1,0,0.1-0.1,0.2c0,0.1-0.1,0.2-0.1,0.3
		c-0.1,0.2-0.2,0.4-0.5,0.4h-16.3c0,1.1,0.2,2,0.5,2.8l0,0c0.2,0.7,0.6,1.4,1.3,2c0.7,0.6,1.4,1,2.1,1.1c0.3,0.1,0.7,0.2,1,0.3
		c0.6,0.2,1.1,0.4,1.8,0.4c1.3,0,2.4-0.1,3.4-0.3c0.8-0.2,1.7-0.3,2.5-0.6l0.3-0.1c0.6-0.2,1-0.4,1.3-0.6c0.2-0.1,0.4-0.2,0.6-0.3
		c0.2-0.1,0.4-0.2,0.5-0.3l0.1-0.1h0.3c0.2,0,0.4,0.1,0.5,0.2c0,0,0.1,0,0.1,0.1l0.1,0.1l0.1,0.1c0,0,0,0.1,0.1,0.1
		c0.1,0.1,0.2,0.3,0.2,0.5c0,0.3-0.2,0.5-0.3,0.6c-0.1,0.1-0.4,0.4-0.9,0.6c-0.5,0.3-1.1,0.6-1.8,0.8c-0.8,0.3-1.9,0.6-2.9,0.7
		C336,162.5,334.6,162.5,333,162.5z M334.2,145.7c-1.6,0-2.8,0.1-3.9,0.4c-1.2,0.3-2.2,0.7-3.1,1.3c-0.8,0.6-1.4,1.3-2,2.4
		c-0.5,1-0.8,2.4-0.8,4c0,1.4,0.1,2.5,0.4,3.3l0,0c0.3,0.9,0.8,1.8,1.5,2.5c0.5,0.6,1.4,1.1,2.6,1.7c1,0.4,2.3,0.6,4,0.6
		c1.6,0,2.9-0.1,4-0.3c1-0.2,2-0.4,2.8-0.7c0.6-0.2,1.2-0.5,1.7-0.8l0,0c0.4-0.2,0.6-0.4,0.7-0.5c0.1-0.1,0.1-0.1,0.1-0.1
		c0,0,0-0.1-0.1-0.2c0,0,0,0,0-0.1c0,0,0,0-0.1,0c-0.1-0.1-0.1-0.1-0.2-0.1h-0.1c-0.1,0.1-0.3,0.2-0.5,0.3c-0.2,0.1-0.3,0.2-0.5,0.3
		c-0.4,0.2-0.9,0.4-1.5,0.6l-0.3,0.1c-0.8,0.3-1.7,0.5-2.6,0.7c-1.1,0.2-2.2,0.3-3.5,0.3c-0.8,0-1.4-0.2-2-0.4
		c-0.3-0.1-0.6-0.2-0.9-0.3c-0.9-0.2-1.6-0.6-2.4-1.3l0,0c-0.7-0.7-1.2-1.5-1.5-2.3c-0.4-0.9-0.6-2.1-0.6-3.4v-0.3h16.9
		c0-0.1,0-0.1,0.1-0.2c0-0.1,0-0.2,0.1-0.3c0-0.1,0-0.2,0-0.2c0-0.1,0-0.2,0-0.3v-0.6c0-2-0.7-3.5-2.1-4.5
		C339.2,146.2,337.1,145.7,334.2,145.7z M342,153.4h-16.6v-0.3c0-1.1,0.2-2,0.7-3.1c0.4-0.9,1-1.6,1.8-2.1c0.7-0.6,1.5-0.8,2.7-1.1
		c0.9-0.3,2.1-0.4,3.6-0.4c1.7,0,2.8,0.2,3.7,0.5c1.1,0.3,1.9,0.7,2.4,1.2c0.6,0.5,1.1,1.1,1.4,1.8c0.3,0.6,0.4,1.3,0.4,2.1V153.4z
		 M326,152.7h15.3V152c0-0.8-0.1-1.3-0.3-1.9c-0.2-0.5-0.6-1.1-1.2-1.5c-0.5-0.4-1.2-0.8-2.2-1c-0.9-0.2-2-0.4-3.6-0.4
		c-1.4,0-2.5,0.1-3.4,0.4c-1.1,0.3-1.8,0.6-2.5,1l0,0c-0.7,0.4-1.2,1-1.5,1.8C326.3,151.1,326.1,151.9,326,152.7z"/>
	<path class="st1" d="M366.5,160.6c0,0.2,0,0.4,0,0.5c0,0.2-0.1,0.4-0.2,0.5c-0.1,0.2-0.2,0.3-0.3,0.4c-0.1,0.1-0.3,0.2-0.5,0.2
		c-0.2,0-0.4,0-0.5-0.2c-0.1-0.1-0.2-0.2-0.3-0.4c-0.1-0.2-0.1-0.3-0.1-0.5s0-0.4,0-0.5v-7.3c0-1.1-0.1-2-0.3-2.8
		c-0.2-0.8-0.5-1.5-0.9-2c-0.5-0.5-1.1-0.9-1.9-1.2c-0.8-0.3-1.9-0.4-3.3-0.4c-0.8,0-1.7,0.1-2.7,0.2c-0.9,0.1-1.8,0.4-2.7,0.7
		s-1.6,0.7-2.2,1.3c-0.6,0.5-1.1,1.3-1.4,2.1v9.5c0,0.2,0,0.4,0,0.5c0,0.2-0.1,0.4-0.1,0.5c-0.1,0.2-0.2,0.3-0.3,0.4
		c-0.1,0.1-0.3,0.2-0.5,0.2c-0.2,0-0.4,0-0.5-0.2c-0.1-0.1-0.2-0.2-0.3-0.4c-0.1-0.2-0.1-0.3-0.1-0.5c0-0.2,0-0.4,0-0.5v-13.7
		c0-0.3,0.1-0.5,0.2-0.6c0.1-0.2,0.4-0.3,0.7-0.3s0.5,0.1,0.6,0.3c0.1,0.2,0.1,0.5,0.1,0.7v2.7c0.4-0.9,0.9-1.6,1.6-2.2
		c0.7-0.5,1.5-0.9,2.3-1.2c0.8-0.3,1.6-0.5,2.6-0.5c0.8-0.1,1.6-0.1,2.4-0.1c1.6,0,2.8,0.1,3.8,0.4c1,0.3,1.8,0.7,2.5,1.3
		c0.6,0.6,1.1,1.4,1.4,2.4c0.3,1,0.4,2.2,0.4,3.7L366.5,160.6L366.5,160.6z"/>
	<path class="st1" d="M348.6,162.5c-0.2,0-0.5,0-0.7-0.3c-0.1-0.1-0.2-0.2-0.3-0.4c-0.1-0.3-0.1-0.4-0.1-0.6v-14.3
		c0-0.4,0.1-0.6,0.2-0.8c0.1-0.2,0.4-0.5,1-0.5c0.3,0,0.7,0,0.9,0.5c0.1,0.3,0.1,0.6,0.1,0.9v1.3c0.3-0.4,0.7-0.8,1.1-1.1
		c0.7-0.5,1.5-0.9,2.4-1.2c0.9-0.3,1.7-0.5,2.6-0.6c0.8-0.1,1.7-0.1,2.4-0.1c1.8,0,3,0.1,3.9,0.4c1,0.3,1.9,0.7,2.6,1.4l0,0
		c0.7,0.7,1.2,1.5,1.5,2.5c0.3,1,0.4,2.1,0.4,3.8v6.9h0.1v0.9c0,0.2-0.1,0.5-0.2,0.7c-0.1,0.2-0.2,0.3-0.3,0.4
		c-0.2,0.2-0.4,0.3-0.7,0.3c-0.2,0-0.5,0-0.7-0.3c-0.1-0.1-0.2-0.2-0.3-0.4c-0.1-0.3-0.1-0.4-0.1-0.6v-7.9c0-1.1-0.1-2-0.3-2.8
		c-0.2-0.8-0.4-1.4-0.8-1.9c-0.4-0.5-1-0.8-1.8-1.1c-0.7-0.2-1.7-0.3-3.2-0.3c-0.8,0-1.7,0.1-2.6,0.2c-0.8,0.1-1.7,0.3-2.6,0.7
		c-0.9,0.4-1.5,0.7-2.1,1.2c-0.6,0.5-1,1.1-1.3,1.9v10c0,0.2,0,0.3-0.1,0.4c0,0,0,0.1,0,0.1v0.1l0,0.1c-0.1,0.2-0.2,0.4-0.3,0.5
		C349.1,162.4,348.8,162.5,348.6,162.5z M348.4,161.9c0,0,0.1,0,0.2,0c0.1,0,0.2-0.1,0.2-0.1c0.1-0.1,0.1-0.1,0.2-0.2
		c0,0,0-0.1,0-0.1c0-0.1,0-0.1,0-0.2V147c0-0.2,0-0.5-0.1-0.6c0,0,0-0.1-0.3-0.1c-0.3,0-0.4,0.1-0.4,0.1c-0.1,0.2-0.1,0.3-0.1,0.5
		v14.3c0,0.2,0,0.2,0.1,0.3C348.2,161.6,348.3,161.7,348.4,161.9L348.4,161.9L348.4,161.9z M365.4,161.8c0,0,0.1,0,0.2,0
		c0.1,0,0.2-0.1,0.2-0.1c0.1-0.1,0.1-0.1,0.2-0.3l0,0l0,0c0,0,0.1-0.1,0.1-0.2v-0.2H366v-7.6c0-1.6-0.1-2.7-0.4-3.6
		c-0.2-0.9-0.6-1.6-1.3-2.2c-0.6-0.6-1.4-1-2.3-1.2c-0.9-0.2-2.1-0.4-3.8-0.4c-0.7,0-1.5,0-2.3,0.1c-0.9,0.1-1.7,0.3-2.5,0.5
		c-0.8,0.3-1.5,0.6-2.2,1.1c-0.6,0.5-1.1,1.1-1.5,1.9c0.2-0.3,0.5-0.6,0.8-0.9c0.6-0.6,1.4-0.9,2.3-1.3c0.9-0.4,1.9-0.7,2.8-0.8
		c0.9-0.1,1.8-0.2,2.7-0.2c1.6,0,2.6,0.1,3.4,0.4c0.9,0.3,1.6,0.7,2.1,1.3c0.5,0.6,0.8,1.2,1,2.2c0.2,0.9,0.3,1.8,0.3,2.9v7.9
		c0,0.2,0,0.2,0.1,0.3C365.2,161.6,365.2,161.6,365.4,161.8L365.4,161.8L365.4,161.8z"/>
</g>
</svg>
